<svg width="28" height="28" viewBox="0 0 28 28" fill="none" xmlns="http://www.w3.org/2000/svg">
<path d="M13.9998 0.666626C6.63674 0.666626 0.666504 6.63686 0.666504 14C0.666504 21.3631 6.63674 27.3333 13.9998 27.3333C21.3629 27.3333 27.3332 21.3631 27.3332 14C27.3332 6.63686 21.3629 0.666626 13.9998 0.666626ZM19.7141 14.7142C19.7141 14.8452 19.607 14.9523 19.476 14.9523H14.9522V19.4762C14.9522 19.6071 14.8451 19.7142 14.7141 19.7142H13.2856C13.1546 19.7142 13.0475 19.6071 13.0475 19.4762V14.9523H8.52365C8.39269 14.9523 8.28555 14.8452 8.28555 14.7142V13.2857C8.28555 13.1547 8.39269 13.0476 8.52365 13.0476H13.0475V8.52377C13.0475 8.39282 13.1546 8.28567 13.2856 8.28567H14.7141C14.8451 8.28567 14.9522 8.39282 14.9522 8.52377V13.0476H19.476C19.607 13.0476 19.7141 13.1547 19.7141 13.2857V14.7142Z" fill="black"/>
</svg>
