<svg width="32" height="32" viewBox="0 0 32 32" fill="none" xmlns="http://www.w3.org/2000/svg">
<path d="M23.1632 4.48965C23.0084 4.33444 22.8244 4.21129 22.622 4.12727C22.4195 4.04325 22.2024 4 21.9832 4C21.764 4 21.5469 4.04325 21.3444 4.12727C21.1419 4.21129 20.958 4.33444 20.8032 4.48965L9.72318 15.5696C9.59957 15.693 9.50151 15.8395 9.4346 16.0008C9.36769 16.1621 9.33325 16.335 9.33325 16.5096C9.33325 16.6843 9.36769 16.8572 9.4346 17.0185C9.50151 17.1798 9.59957 17.3263 9.72318 17.4496L20.8032 28.5296C21.4565 29.183 22.5098 29.183 23.1632 28.5296C23.8165 27.8763 23.8165 26.823 23.1632 26.1696L13.5098 16.503L23.1765 6.83631C23.8165 6.19631 23.8165 5.12965 23.1632 4.48965Z" fill="#010620"/>
</svg>
