<svg width="10" height="6" viewBox="0 0 10 6" fill="none" xmlns="http://www.w3.org/2000/svg">
<path d="M0.683617 0.313778C0.625413 0.371835 0.579235 0.440804 0.547727 0.516736C0.516218 0.592667 0.5 0.674069 0.5 0.756279C0.5 0.838488 0.516218 0.919889 0.547727 0.995821C0.579235 1.07175 0.625413 1.14072 0.683617 1.19878L4.83862 5.35378C4.88487 5.40013 4.93982 5.4369 5.00031 5.46199C5.06079 5.48708 5.12563 5.5 5.19112 5.5C5.2566 5.5 5.32144 5.48708 5.38193 5.46199C5.44242 5.4369 5.49736 5.40013 5.54362 5.35378L9.69862 1.19878C9.94362 0.953778 9.94362 0.558778 9.69862 0.313778C9.45362 0.0687776 9.05862 0.0687776 8.81362 0.313778L5.18862 3.93378L1.56362 0.308779C1.32362 0.0687785 0.923617 0.0687776 0.683617 0.313778Z" fill="black"/>
</svg>
