<svg width="26" height="8" viewBox="0 0 26 8" fill="none" xmlns="http://www.w3.org/2000/svg">
<path d="M2.38904 7.10445L1.08873 6.14953L2.89698 4.17874L0.540155 3.2035L1.23095 1.82191L3.30333 2.83778L3.20174 0.582546H4.90841L4.80682 2.83778L6.8792 1.82191L7.54968 3.2035L5.19285 4.17874L7.00111 6.14953L5.70079 7.10445L4.05508 4.93048L2.38904 7.10445ZM11.1589 7.10445L9.85857 6.14953L11.6668 4.17874L9.31 3.2035L10.0008 1.82191L12.0732 2.83778L11.9716 0.582546H13.6783L13.5767 2.83778L15.649 1.82191L16.3195 3.2035L13.9627 4.17874L15.7709 6.14953L14.4706 7.10445L12.8249 4.93048L11.1589 7.10445ZM19.9287 7.10445L18.6284 6.14953L20.4367 4.17874L18.0798 3.2035L18.7706 1.82191L20.843 2.83778L20.7414 0.582546H22.4481L22.3465 2.83778L24.4189 1.82191L25.0894 3.2035L22.7325 4.17874L24.5408 6.14953L23.2405 7.10445L21.5948 4.93048L19.9287 7.10445Z" fill="#3F4356"/>
</svg>
