<svg width="28" height="26" viewBox="0 0 28 26" fill="none" xmlns="http://www.w3.org/2000/svg">
<path d="M23.3332 0H4.6665C3.60564 0 2.58822 0.421427 1.83808 1.17157C1.08793 1.92172 0.666504 2.93913 0.666504 4V24C0.666911 24.2363 0.730089 24.4682 0.849571 24.672C0.969054 24.8758 1.14055 25.0442 1.3465 25.16C1.54578 25.2729 1.77079 25.3326 1.99984 25.3333C2.23915 25.3333 2.47403 25.2688 2.67984 25.1467L8.6665 21.52C8.88779 21.3883 9.1425 21.3234 9.39984 21.3333H23.3332C24.394 21.3333 25.4115 20.9119 26.1616 20.1618C26.9117 19.4116 27.3332 18.3942 27.3332 17.3333V4C27.3332 2.93913 26.9117 1.92172 26.1616 1.17157C25.4115 0.421427 24.394 0 23.3332 0ZM8.6665 12C8.4028 12 8.14501 11.9218 7.92574 11.7753C7.70648 11.6288 7.53558 11.4205 7.43466 11.1769C7.33375 10.9333 7.30734 10.6652 7.35879 10.4065C7.41024 10.1479 7.53723 9.91033 7.7237 9.72386C7.91017 9.53739 8.14774 9.4104 8.40638 9.35895C8.66503 9.30751 8.93311 9.33391 9.17675 9.43483C9.42038 9.53574 9.62862 9.70664 9.77513 9.92591C9.92164 10.1452 9.99984 10.403 9.99984 10.6667C9.99984 11.0203 9.85936 11.3594 9.60931 11.6095C9.35926 11.8595 9.02013 12 8.6665 12ZM13.9998 12C13.7361 12 13.4783 11.9218 13.2591 11.7753C13.0398 11.6288 12.8689 11.4205 12.768 11.1769C12.6671 10.9333 12.6407 10.6652 12.6921 10.4065C12.7436 10.1479 12.8706 9.91033 13.057 9.72386C13.2435 9.53739 13.4811 9.4104 13.7397 9.35895C13.9984 9.30751 14.2664 9.33391 14.5101 9.43483C14.7537 9.53574 14.962 9.70664 15.1085 9.92591C15.255 10.1452 15.3332 10.403 15.3332 10.6667C15.3332 11.0203 15.1927 11.3594 14.9426 11.6095C14.6926 11.8595 14.3535 12 13.9998 12ZM19.3332 12C19.0695 12 18.8117 11.9218 18.5924 11.7753C18.3731 11.6288 18.2022 11.4205 18.1013 11.1769C18.0004 10.9333 17.974 10.6652 18.0255 10.4065C18.0769 10.1479 18.2039 9.91033 18.3904 9.72386C18.5768 9.53739 18.8144 9.4104 19.0731 9.35895C19.3317 9.30751 19.5998 9.33391 19.8434 9.43483C20.087 9.53574 20.2953 9.70664 20.4418 9.92591C20.5883 10.1452 20.6665 10.403 20.6665 10.6667C20.6665 11.0203 20.526 11.3594 20.276 11.6095C20.0259 11.8595 19.6868 12 19.3332 12Z" fill="#010620" fill-opacity="0.75"/>
</svg>
