<svg width="28" height="22" viewBox="0 0 28 22" fill="none" xmlns="http://www.w3.org/2000/svg">
<path d="M3.33317 21.6663H24.6665C26.1332 21.6663 27.3332 20.4663 27.3332 18.9997C27.3332 17.533 26.1332 16.333 24.6665 16.333H3.33317C1.8665 16.333 0.666504 17.533 0.666504 18.9997C0.666504 20.4663 1.8665 21.6663 3.33317 21.6663ZM3.33317 17.6663H5.99984V20.333H3.33317V17.6663ZM0.666504 2.99967C0.666504 4.46634 1.8665 5.66634 3.33317 5.66634H24.6665C26.1332 5.66634 27.3332 4.46634 27.3332 2.99967C27.3332 1.53301 26.1332 0.333008 24.6665 0.333008H3.33317C1.8665 0.333008 0.666504 1.53301 0.666504 2.99967ZM5.99984 4.33301H3.33317V1.66634H5.99984V4.33301ZM3.33317 13.6663H24.6665C26.1332 13.6663 27.3332 12.4663 27.3332 10.9997C27.3332 9.53301 26.1332 8.33301 24.6665 8.33301H3.33317C1.8665 8.33301 0.666504 9.53301 0.666504 10.9997C0.666504 12.4663 1.8665 13.6663 3.33317 13.6663ZM3.33317 9.66634H5.99984V12.333H3.33317V9.66634Z" fill="#3F4356"/>
</svg>
