<svg width="18" height="18" viewBox="0 0 18 18" fill="none" xmlns="http://www.w3.org/2000/svg">
<path d="M14.6998 0.666992L17.333 3.30023L15.3256 5.30851L12.6924 2.67527L14.6998 0.666992Z" fill="white" fill-opacity="0.5"/>
<path d="M5.05518 12.9444H7.68841L14.0845 6.54828L11.4513 3.91504L5.05518 10.3112V12.9444Z" fill="white" fill-opacity="0.5"/>
<path d="M14.7104 15.5781H5.19392C5.17109 15.5781 5.1474 15.5869 5.12457 15.5869C5.09561 15.5869 5.06664 15.579 5.0368 15.5781H2.422V3.28967H8.43192L10.1874 1.53418H2.422C1.45384 1.53418 0.666504 2.32064 0.666504 3.28967V15.5781C0.666504 16.5471 1.45384 17.3336 2.422 17.3336H14.7104C15.176 17.3336 15.6225 17.1486 15.9518 16.8194C16.281 16.4902 16.4659 16.0437 16.4659 15.5781V7.96981L14.7104 9.7253V15.5781Z" fill="white" fill-opacity="0.5"/>
</svg>
