<svg width="36" height="37" viewBox="0 0 36 37" fill="none" xmlns="http://www.w3.org/2000/svg">
<path d="M32.4 19.3163C32.4 18.083 32.2999 17.183 32.0833 16.2496H18V21.8162H26.2666C26.1 23.1996 25.2 25.283 23.2 26.6829L23.1719 26.8692L27.6248 30.3188L27.9333 30.3496C30.7666 27.7329 32.4 23.8829 32.4 19.3163Z" fill="#4285F4"/>
<path d="M18 33.983C22.05 33.983 25.4499 32.6496 27.9333 30.3497L23.2 26.683C21.9333 27.5663 20.2333 28.183 18 28.183C14.0334 28.183 10.6667 25.5664 9.46662 21.9497L9.29071 21.9646L4.66053 25.548L4.59998 25.7163C7.06662 30.6163 12.1333 33.983 18 33.983Z" fill="#34A853"/>
<path d="M9.4666 21.9497C9.14994 21.0164 8.96668 20.0163 8.96668 18.983C8.96668 17.9496 9.14994 16.9496 9.44994 16.0163L9.44156 15.8175L4.75335 12.1766L4.59996 12.2496C3.58334 14.283 3 16.5663 3 18.983C3 21.3997 3.58334 23.6829 4.59996 25.7163L9.4666 21.9497Z" fill="#FBBC05"/>
<path d="M18 9.78299C20.8166 9.78299 22.7166 10.9997 23.8 12.0164L28.0333 7.88303C25.4334 5.46637 22.05 3.98303 18 3.98303C12.1333 3.98303 7.06662 7.34967 4.59998 12.2496L9.44996 16.0164C10.6667 12.3997 14.0334 9.78299 18 9.78299Z" fill="#EB4335"/>
</svg>
