<svg width="26" height="26" viewBox="0 0 26 26" fill="none" xmlns="http://www.w3.org/2000/svg">
<path d="M13 0.5C6.0971 0.5 0.5 6.0971 0.5 13C0.5 19.9029 6.0971 25.5 13 25.5C19.9029 25.5 25.5 19.9029 25.5 13C25.5 6.0971 19.9029 0.5 13 0.5ZM13 20.2545C12.3834 20.2545 11.8839 19.755 11.8839 19.1384C11.8839 18.5218 12.3834 18.0223 13 18.0223C13.6166 18.0223 14.1161 18.5218 14.1161 19.1384C14.1161 19.755 13.6166 20.2545 13 20.2545ZM14.755 14.13C14.5023 14.2276 14.2849 14.3991 14.1311 14.622C13.9773 14.845 13.8943 15.1092 13.8929 15.38V16.0134C13.8929 16.1362 13.7924 16.2366 13.6696 16.2366H12.3304C12.2076 16.2366 12.1071 16.1362 12.1071 16.0134V15.4135C12.1071 14.769 12.2941 14.1328 12.6624 13.6027C13.0223 13.0837 13.5246 12.6875 14.1161 12.4615C15.0647 12.096 15.6786 11.3008 15.6786 10.433C15.6786 9.2026 14.476 8.2009 13 8.2009C11.524 8.2009 10.3214 9.2026 10.3214 10.433V10.6451C10.3214 10.7679 10.221 10.8683 10.0982 10.8683H8.7589C8.6362 10.8683 8.5357 10.7679 8.5357 10.6451V10.433C8.5357 9.3365 9.0156 8.3125 9.8862 7.55078C10.7232 6.81696 11.8281 6.41518 13 6.41518C14.1719 6.41518 15.2768 6.81975 16.1138 7.55078C16.9844 8.3125 17.4643 9.3365 17.4643 10.433C17.4643 12.0458 16.4012 13.4967 14.755 14.13Z" fill="#2F2F2F"/>
</svg>
