<svg width="30" height="30" viewBox="0 0 30 30" fill="none" xmlns="http://www.w3.org/2000/svg">
<path d="M15 2.5C8.0971 2.5 2.5 8.0971 2.5 15C2.5 21.9029 8.0971 27.5 15 27.5C21.9029 27.5 27.5 21.9029 27.5 15C27.5 8.0971 21.9029 2.5 15 2.5ZM15 22.2545C14.3834 22.2545 13.8839 21.755 13.8839 21.1384C13.8839 20.5218 14.3834 20.0223 15 20.0223C15.6166 20.0223 16.1161 20.5218 16.1161 21.1384C16.1161 21.755 15.6166 22.2545 15 22.2545ZM16.755 16.13C16.5023 16.2276 16.2849 16.3991 16.1311 16.622C15.9773 16.845 15.8943 17.1092 15.8929 17.38V18.0134C15.8929 18.1362 15.7924 18.2366 15.6696 18.2366H14.3304C14.2076 18.2366 14.1071 18.1362 14.1071 18.0134V17.4135C14.1071 16.769 14.2941 16.1328 14.6624 15.6027C15.0223 15.0837 15.5246 14.6875 16.1161 14.4615C17.0647 14.096 17.6786 13.3008 17.6786 12.433C17.6786 11.2026 16.476 10.2009 15 10.2009C13.524 10.2009 12.3214 11.2026 12.3214 12.433V12.6451C12.3214 12.7679 12.221 12.8683 12.0982 12.8683H10.7589C10.6362 12.8683 10.5357 12.7679 10.5357 12.6451V12.433C10.5357 11.3365 11.0156 10.3125 11.8862 9.55078C12.7232 8.81696 13.8281 8.41518 15 8.41518C16.1719 8.41518 17.2768 8.81975 18.1138 9.55078C18.9844 10.3125 19.4643 11.3365 19.4643 12.433C19.4643 14.0458 18.4012 15.4967 16.755 16.13Z" fill="white"/>
</svg>
