<svg width="7" height="12" viewBox="0 0 7 12" fill="none" xmlns="http://www.w3.org/2000/svg">
<path d="M6.13409 0.96422C6.06636 0.896315 5.98589 0.84244 5.8973 0.805681C5.80872 0.768922 5.71375 0.75 5.61784 0.75C5.52193 0.75 5.42696 0.768922 5.33837 0.805681C5.24979 0.84244 5.16932 0.896315 5.10159 0.96422L0.254089 5.81172C0.200011 5.86569 0.157109 5.92979 0.127836 6.00036C0.0985637 6.07092 0.0834961 6.14657 0.0834961 6.22297C0.0834961 6.29937 0.0985637 6.37502 0.127836 6.44558C0.157109 6.51615 0.200011 6.58025 0.254089 6.63422L5.10159 11.4817C5.38742 11.7676 5.84826 11.7676 6.13409 11.4817C6.41992 11.1959 6.41992 10.7351 6.13409 10.4492L1.91076 6.22005L6.13992 1.99089C6.41992 1.71089 6.41992 1.24422 6.13409 0.96422Z" fill="black"/>
</svg>
