<svg width="7" height="12" viewBox="0 0 7 12" fill="none" xmlns="http://www.w3.org/2000/svg">
<path d="M0.865911 11.0358C0.933644 11.1037 1.01411 11.1576 1.1027 11.1943C1.19128 11.2311 1.28625 11.25 1.38216 11.25C1.47807 11.25 1.57304 11.2311 1.66163 11.1943C1.75021 11.1576 1.83068 11.1037 1.89841 11.0358L6.74591 6.18828C6.79999 6.13431 6.84289 6.07021 6.87216 5.99964C6.90144 5.92908 6.9165 5.85343 6.9165 5.77703C6.9165 5.70063 6.90144 5.62498 6.87216 5.55442C6.84289 5.48385 6.79999 5.41975 6.74591 5.36578L1.89841 0.518279C1.61258 0.232446 1.15174 0.232446 0.865911 0.518279C0.580078 0.804112 0.580078 1.26495 0.865911 1.55078L5.08924 5.77995L0.860079 10.0091C0.580079 10.2891 0.580078 10.7558 0.865911 11.0358Z" fill="black"/>
</svg>
