<svg width="28" height="28" viewBox="0 0 28 28" fill="none" xmlns="http://www.w3.org/2000/svg">
<path d="M26.8431 21.5557L20.7582 16.0231C20.4706 15.7617 20.0926 15.6223 19.7041 15.6343C19.3156 15.6463 18.947 15.8088 18.676 16.0875L15.094 19.7714C14.2318 19.6067 12.4984 19.0663 10.7141 17.2865C8.92977 15.5007 8.38939 13.7628 8.22922 12.9066L11.9101 9.32306C12.1891 9.05231 12.3519 8.68362 12.3639 8.295C12.3759 7.90639 12.2362 7.52835 11.9744 7.24088L6.44343 1.15751C6.18154 0.869146 5.81755 0.69423 5.42877 0.669914C5.03999 0.645597 4.65704 0.773796 4.36126 1.02728L1.113 3.813C0.854204 4.07273 0.699737 4.41842 0.678901 4.78448C0.656448 5.1587 0.228337 14.0233 7.10206 20.9C13.0986 26.8951 20.61 27.3337 22.6787 27.3337C22.9811 27.3337 23.1667 27.3247 23.2161 27.3217C23.5821 27.3012 23.9276 27.146 24.1861 26.8861L26.9703 23.6363C27.2248 23.3415 27.3539 22.9589 27.3302 22.5701C27.3064 22.1813 27.1316 21.8173 26.8431 21.5557Z" fill="#3F4356"/>
</svg>
