<svg width="22" height="28" viewBox="0 0 22 28" fill="none" xmlns="http://www.w3.org/2000/svg">
<path d="M11.0002 0.666992C7.32416 0.666992 4.3335 3.65766 4.3335 7.33366V11.3337H3.00016C2.29292 11.3337 1.61464 11.6146 1.11454 12.1147C0.614448 12.6148 0.333496 13.2931 0.333496 14.0003V24.667C0.333496 25.3742 0.614448 26.0525 1.11454 26.5526C1.61464 27.0527 2.29292 27.3337 3.00016 27.3337H19.0002C19.7074 27.3337 20.3857 27.0527 20.8858 26.5526C21.3859 26.0525 21.6668 25.3742 21.6668 24.667V14.0003C21.6668 13.2931 21.3859 12.6148 20.8858 12.1147C20.3857 11.6146 19.7074 11.3337 19.0002 11.3337H17.6668V7.33366C17.6668 3.65766 14.6762 0.666992 11.0002 0.666992ZM7.00016 7.33366C7.00016 5.12832 8.79483 3.33366 11.0002 3.33366C13.2055 3.33366 15.0002 5.12832 15.0002 7.33366V11.3337H7.00016V7.33366ZM12.3335 21.631V24.667H9.66683V21.631C9.20068 21.364 8.82637 20.9621 8.59327 20.4781C8.36016 19.9942 8.27921 19.4509 8.36107 18.92C8.44294 18.3891 8.68378 17.8955 9.05185 17.5042C9.41991 17.113 9.89792 16.8424 10.4228 16.7283C10.8127 16.6421 11.217 16.6445 11.6058 16.7354C11.9947 16.8262 12.3581 17.0032 12.6695 17.2532C12.9808 17.5033 13.232 17.82 13.4047 18.1801C13.5773 18.5401 13.6669 18.9344 13.6668 19.3337C13.6661 19.8 13.5424 20.2579 13.3083 20.6612C13.0743 21.0645 12.738 21.399 12.3335 21.631Z" fill="#010620" fill-opacity="0.75"/>
</svg>
