<svg width="27" height="28" viewBox="0 0 27 28" fill="none" xmlns="http://www.w3.org/2000/svg">
<path d="M12.6455 27.3337C13.1502 27.3221 13.6346 27.1324 14.0129 26.798C14.3912 26.4637 14.6391 26.0063 14.7128 25.5068H10.498C10.5737 26.0199 10.8332 26.488 11.2283 26.8241C11.6233 27.1601 12.1269 27.3412 12.6455 27.3337Z" fill="#010620" fill-opacity="0.75"/>
<path d="M24.5445 22.4057L24.2721 22.1653C23.4992 21.4767 22.8227 20.687 22.2609 19.8176C21.6473 18.6177 21.2795 17.3074 21.1792 15.9634V12.0051C21.1759 11.5243 21.133 11.0446 21.0509 10.5709C19.6937 10.2919 18.4745 9.55246 17.5999 8.47775C16.7252 7.40305 16.2488 6.05911 16.2513 4.67347V4.16867C15.4147 3.75697 14.5159 3.48623 13.5911 3.3674V2.35779C13.5911 2.07409 13.4784 1.802 13.2778 1.60139C13.0772 1.40079 12.8051 1.28809 12.5214 1.28809C12.2377 1.28809 11.9656 1.40079 11.765 1.60139C11.5644 1.802 11.4517 2.07409 11.4517 2.35779V3.40746C9.38095 3.69957 7.48582 4.73096 6.11615 6.31123C4.74649 7.89149 3.99478 9.91393 3.99981 12.0051V15.9634C3.89945 17.3074 3.53169 18.6177 2.91809 19.8176C2.36591 20.6848 1.70031 21.4744 0.938938 22.1653L0.666504 22.4057V24.6653H24.5445V22.4057Z" fill="#010620" fill-opacity="0.75"/>
<path d="M22.2608 8.67975C24.4734 8.67975 26.2672 6.88603 26.2672 4.67337C26.2672 2.46071 24.4734 0.666992 22.2608 0.666992C20.0481 0.666992 18.2544 2.46071 18.2544 4.67337C18.2544 6.88603 20.0481 8.67975 22.2608 8.67975Z" fill="#010620" fill-opacity="0.75"/>
</svg>
