<svg width="22" height="22" viewBox="0 0 22 22" fill="none" xmlns="http://www.w3.org/2000/svg">
<path d="M21.0301 19.2727L17.0168 15.396C18.3117 13.7978 19.0143 11.8242 19.0117 9.79239C19.0117 7.98295 18.4579 6.21414 17.4202 4.70964C16.3826 3.20514 14.9078 2.03253 13.1823 1.34008C11.4568 0.647641 9.55812 0.466466 7.72633 0.819471C5.89455 1.17248 4.21195 2.04381 2.89131 3.32328C1.57067 4.60275 0.671303 6.23289 0.306939 8.00757C-0.057425 9.78224 0.12958 11.6217 0.844306 13.2935C1.55903 14.9652 2.76938 16.394 4.32229 17.3993C5.8752 18.4045 7.70092 18.9411 9.56859 18.9411C11.6657 18.9436 13.7028 18.2629 15.3525 17.0084L19.354 20.8966C19.4637 21.0038 19.5943 21.0889 19.7381 21.147C19.882 21.205 20.0363 21.2349 20.1921 21.2349C20.3479 21.2349 20.5022 21.205 20.646 21.147C20.7899 21.0889 20.9204 21.0038 21.0301 20.8966C21.1408 20.7903 21.2286 20.6638 21.2885 20.5245C21.3485 20.3851 21.3793 20.2357 21.3793 20.0847C21.3793 19.9337 21.3485 19.7843 21.2885 19.6449C21.2286 19.5055 21.1408 19.3791 21.0301 19.2727ZM2.48627 9.79239C2.48627 8.43531 2.90164 7.1087 3.67985 5.98033C4.45807 4.85195 5.56418 3.97249 6.8583 3.45316C8.15243 2.93383 9.57645 2.79795 10.9503 3.0627C12.3241 3.32745 13.5861 3.98095 14.5765 4.94056C15.567 5.90016 16.2416 7.12277 16.5148 8.45377C16.7881 9.78478 16.6479 11.1644 16.1118 12.4182C15.5758 13.672 14.668 14.7436 13.5033 15.4975C12.3386 16.2515 10.9693 16.6539 9.56859 16.6539C7.69024 16.6539 5.88882 15.931 4.56063 14.6442C3.23244 13.3574 2.48627 11.6122 2.48627 9.79239Z" fill="black"/>
</svg>
