<svg width="12" height="12" viewBox="0 0 12 12" fill="none" xmlns="http://www.w3.org/2000/svg">
<path d="M11.6415 10.7214L9.43852 8.52492C10.1493 7.6194 10.535 6.50119 10.5335 5.35002C10.5335 4.32482 10.2295 3.32264 9.65996 2.47021C9.09038 1.61779 8.28083 0.953406 7.33367 0.561078C6.3865 0.16875 5.34427 0.066099 4.33877 0.266106C3.33326 0.466113 2.40965 0.959795 1.68472 1.68472C0.959795 2.40965 0.466113 3.33326 0.266106 4.33877C0.066099 5.34427 0.16875 6.3865 0.561078 7.33367C0.953406 8.28083 1.61779 9.09038 2.47021 9.65996C3.32264 10.2295 4.32482 10.5335 5.35002 10.5335C6.50119 10.535 7.6194 10.1493 8.52492 9.43852L10.7214 11.6415C10.7817 11.7022 10.8533 11.7504 10.9323 11.7833C11.0112 11.8162 11.0959 11.8332 11.1815 11.8332C11.267 11.8332 11.3517 11.8162 11.4307 11.7833C11.5096 11.7504 11.5813 11.7022 11.6415 11.6415C11.7022 11.5813 11.7504 11.5096 11.7833 11.4307C11.8162 11.3517 11.8332 11.267 11.8332 11.1815C11.8332 11.0959 11.8162 11.0112 11.7833 10.9323C11.7504 10.8533 11.7022 10.7817 11.6415 10.7214ZM1.46238 5.35002C1.46238 4.58112 1.69039 3.82948 2.11757 3.19017C2.54475 2.55085 3.15191 2.05256 3.86229 1.75831C4.57266 1.46407 5.35433 1.38708 6.10846 1.53708C6.86259 1.68709 7.5553 2.05735 8.09899 2.60105C8.64269 3.14474 9.01295 3.83745 9.16296 4.59158C9.31296 5.34571 9.23597 6.12738 8.94173 6.83775C8.64748 7.54813 8.14919 8.15529 7.50988 8.58247C6.87056 9.00965 6.11892 9.23766 5.35002 9.23766C4.31896 9.23766 3.33012 8.82807 2.60105 8.09899C1.87197 7.36992 1.46238 6.38109 1.46238 5.35002Z" fill="#ADA9A9"/>
</svg>
