<svg width="24" height="25" viewBox="0 0 24 25" fill="none" xmlns="http://www.w3.org/2000/svg">
<path d="M9.33929 13.4605C9.33929 14.1419 9.60995 14.7953 10.0917 15.2771C10.5735 15.7588 11.2269 16.0295 11.9082 16.0295C12.5896 16.0295 13.243 15.7588 13.7248 15.2771C14.2065 14.7953 14.4772 14.1419 14.4772 13.4605C14.4772 12.7792 14.2065 12.1258 13.7248 11.644C13.243 11.1622 12.5896 10.8916 11.9082 10.8916C11.2269 10.8916 10.5735 11.1622 10.0917 11.644C9.60995 12.1258 9.33929 12.7792 9.33929 13.4605ZM21.8675 12.8688C19.6931 8.28821 16.4062 5.98303 12 5.98303C7.59148 5.98303 4.30689 8.28821 2.13245 12.871C2.04523 13.0557 2 13.2574 2 13.4617C2 13.6659 2.04523 13.8676 2.13245 14.0523C4.30689 18.6328 7.59378 20.938 12 20.938C16.4085 20.938 19.6931 18.6328 21.8675 14.05C22.0442 13.6784 22.0442 13.2472 21.8675 12.8688ZM11.9082 17.4975C9.67876 17.4975 7.87132 15.69 7.87132 13.4605C7.87132 11.231 9.67876 9.4236 11.9082 9.4236C14.1377 9.4236 15.9452 11.231 15.9452 13.4605C15.9452 15.69 14.1377 17.4975 11.9082 17.4975Z" fill="#010620"/>
</svg>
