<svg width="462" height="479" viewBox="0 0 462 479" fill="none" xmlns="http://www.w3.org/2000/svg">
<circle cx="224.642" cy="253.942" r="224.642" fill="#E5E6EB"/>
<mask id="mask0" mask-type="alpha" maskUnits="userSpaceOnUse" x="0" y="29" width="450" height="450">
<circle cx="224.642" cy="253.942" r="224.642" fill="#CECACA"/>
</mask>
<g mask="url(#mask0)">
<path d="M419.254 412.953C420.175 412.696 429.713 394.54 429.713 394.54C429.713 394.54 429.234 379.183 429.271 371.671C429.308 364.158 435.09 362.906 436.637 366.589C437.918 371.434 438.901 376.354 439.583 381.319C439.877 381.319 448.531 356.756 450.631 355.541C452.73 354.326 475.268 366.147 476.409 373.733C476.962 377.416 473.168 389.679 468.823 401.316C467.608 404.594 456.228 411.628 456.228 411.628C453.862 416.415 451.025 420.955 447.758 425.18L419.254 412.953Z" fill="#FFC9B0"/>
<path d="M447.906 428.789C447.412 428.788 446.924 428.687 446.469 428.494L417.855 416.341C417.287 416.099 416.79 415.718 416.408 415.233C416.026 414.748 415.772 414.175 415.669 413.566C415.566 412.958 415.618 412.333 415.82 411.75C416.022 411.166 416.367 410.643 416.824 410.228C418.003 408.608 422.274 400.837 426.031 393.656C426.031 389.973 425.589 378.115 425.626 371.56C425.662 365.005 429.308 361.654 432.475 360.991C434.019 360.667 435.628 360.895 437.021 361.636C438.414 362.376 439.503 363.581 440.098 365.042C440.476 365.883 440.772 366.759 440.982 367.657C446.064 354.804 447.353 352.926 449.121 352.153C450.263 351.563 451.993 350.68 460.169 354.951C464.514 357.161 478.803 365.042 480.018 373.033C480.792 378.115 476.336 391.852 472.211 402.494C470.885 406.177 463.704 411.149 459.027 414.132C456.631 418.889 453.743 423.381 450.41 427.536C449.773 428.267 448.873 428.717 447.906 428.789ZM424.815 411.296L446.911 420.613C449.263 417.188 451.379 413.608 453.246 409.897C453.548 409.294 454.022 408.794 454.608 408.46C458.674 406.116 462.392 403.216 465.656 399.843C471.548 384.155 473.279 375.906 473.021 374.064C472.432 370.05 458.291 361.249 452.583 359.334C450.631 363.016 446.875 373.07 445.217 377.121C442.603 383.934 442.271 384.818 439.509 384.707C436.747 384.597 436.011 382.129 435.495 378.447C435.082 375.12 434.455 371.823 433.617 368.577C433.147 369.485 432.93 370.503 432.991 371.523C432.991 378.889 433.433 394.098 433.433 394.282C433.466 394.909 433.326 395.534 433.028 396.087C429.087 403.71 426.62 408.387 424.815 411.296Z" fill="#093F68"/>
<path d="M446.396 402.236C445.456 402.238 444.552 401.881 443.867 401.237C443.182 400.593 442.77 399.713 442.713 398.775C442.658 393.278 440.678 387.974 437.116 383.786C436.43 383.096 436.045 382.163 436.045 381.19C436.045 380.217 436.43 379.284 437.116 378.594C437.804 377.919 438.729 377.541 439.693 377.541C440.657 377.541 441.583 377.919 442.271 378.594C447.233 384.056 450.035 391.139 450.152 398.517C450.154 399.457 449.796 400.361 449.153 401.046C448.509 401.73 447.628 402.143 446.69 402.2L446.396 402.236Z" fill="#093F68"/>
<path d="M458.88 431.22C455.197 436.67 425.036 487.822 381.286 509.218C370.115 514.755 357.812 517.629 345.344 517.614C335.769 517.614 323.248 510.581 312.531 503.363C306.713 499.349 301.483 495.298 297.801 492.315C294.118 489.332 292.129 487.38 292.129 487.38V507.082L291.908 581.95H159.112V480.199C126.337 488.779 97.2804 500.858 91.7565 509.144C87.816 517.872 94.5553 547.334 109.912 573.922L59.8647 602.573C52.8309 590.457 18.8032 527.447 40.0521 483.697C50.4003 462.412 76.584 448.086 120.076 431.588C172.517 411.702 224.442 419.361 254.751 419.03C275.387 418.858 295.327 426.487 310.579 440.389C324.132 452.616 341.956 464.179 355.987 457.366C381.765 444.735 407.801 412.585 415.609 401.243L458.88 431.22Z" fill="#5784BA"/>
<path d="M59.9017 606.256C59.2563 606.262 58.6207 606.098 58.0584 605.782C57.4961 605.465 57.0269 605.006 56.6978 604.451C49.3325 592.004 14.6051 527.631 36.7378 482.077C48.0435 458.802 76.5104 444.182 118.787 428.163C161.064 412.143 202.899 413.69 233.465 414.831C241.198 415.126 248.527 415.421 254.714 415.347C276.277 415.126 297.122 423.087 313.047 437.627C325.052 448.454 341.956 460.091 354.366 454.052C379.519 441.752 405.445 409.492 412.552 399.143C412.828 398.739 413.182 398.395 413.593 398.129C414.004 397.863 414.464 397.682 414.946 397.597C415.419 397.503 415.906 397.511 416.375 397.619C416.845 397.727 417.286 397.933 417.671 398.223L460.942 428.089C461.748 428.641 462.301 429.49 462.481 430.45C462.661 431.41 462.451 432.402 461.9 433.208C461.568 433.65 461.089 434.423 460.427 435.454C436.158 473.238 410.048 499.127 382.907 512.385C371.234 518.182 358.377 521.194 345.344 521.186C336.579 521.186 325.163 516.325 310.432 506.272C304.798 502.589 299.716 498.391 295.886 495.224L295.628 581.766C295.628 582.743 295.24 583.679 294.549 584.37C293.859 585.061 292.922 585.449 291.945 585.449H159.112C158.136 585.449 157.199 585.061 156.508 584.37C155.818 583.679 155.43 582.743 155.43 581.766V485.023C121.623 494.266 99.3797 505.056 94.9973 510.801C92.1985 517.982 97.833 545.529 112.969 571.933C113.212 572.354 113.37 572.818 113.433 573.299C113.497 573.781 113.464 574.27 113.337 574.739C113.211 575.208 112.993 575.648 112.695 576.032C112.398 576.416 112.028 576.738 111.606 576.978L61.7062 605.74C61.1593 606.065 60.5376 606.242 59.9017 606.256ZM205.845 421.534C180.435 421.534 150.863 423.854 121.402 435.049C81.9607 450.001 53.6043 464.289 43.3666 485.28C24.2904 524.538 51.763 580.367 61.2642 597.528L104.756 572.449C91.0569 547.223 83.6179 518.093 88.4054 507.524C88.4815 507.34 88.5804 507.167 88.7 507.008C95.5865 496.697 128.546 484.286 158.155 476.553C158.711 476.402 159.295 476.385 159.859 476.501C160.423 476.618 160.952 476.865 161.404 477.223C161.855 477.582 162.216 478.041 162.458 478.564C162.699 479.087 162.815 479.659 162.795 480.235V578.267H288.3L288.521 487.38C288.525 486.667 288.736 485.971 289.129 485.377C289.521 484.782 290.077 484.313 290.73 484.028C291.386 483.74 292.111 483.649 292.818 483.767C293.524 483.885 294.181 484.206 294.707 484.691C294.707 484.691 296.806 486.606 300.268 489.479C303.73 492.351 309.033 496.476 314.594 500.306C331.129 511.575 340.372 513.931 345.344 513.931C357.25 513.933 368.996 511.186 379.666 505.903C397.416 497.212 424.668 477.4 453.835 432.25L416.493 406.472C406.66 419.913 382.244 448.749 357.57 460.828C344.644 467.125 328.109 461.196 308.112 443.262C293.555 429.966 274.502 422.676 254.787 422.86C248.416 422.86 241.014 422.639 233.17 422.344C225.326 422.049 215.641 421.644 205.845 421.644V421.534Z" fill="#093F68"/>
<path d="M209.896 406.545H238.804V423.265C238.804 426.537 237.505 429.675 235.191 431.988C232.877 434.302 229.739 435.602 226.467 435.602H222.232C218.96 435.602 215.823 434.302 213.509 431.988C211.195 429.675 209.896 426.537 209.896 423.265V406.545Z" fill="#FFC9B0"/>
<path d="M226.615 439.284H222.233C217.984 439.284 213.909 437.596 210.905 434.592C207.901 431.588 206.213 427.513 206.213 423.265V406.545C206.213 405.569 206.601 404.632 207.292 403.941C207.982 403.251 208.919 402.863 209.896 402.863H238.805C239.781 402.863 240.718 403.251 241.409 403.941C242.099 404.632 242.487 405.569 242.487 406.545V423.265C242.487 427.488 240.82 431.54 237.847 434.54C234.875 437.54 230.838 439.245 226.615 439.284ZM213.578 410.228V423.265C213.578 425.56 214.49 427.761 216.113 429.384C217.736 431.007 219.937 431.919 222.233 431.919H226.615C228.91 431.919 231.112 431.007 232.734 429.384C234.357 427.761 235.269 425.56 235.269 423.265V410.228H213.578Z" fill="#093F68"/>
<path d="M122.139 331.088C122.139 331.088 96.3602 222.045 105.935 204.626C115.51 187.207 130.572 193.799 130.572 193.799C130.572 193.799 150.974 134.876 196.049 132.52C241.125 130.163 263.331 160.729 288.558 157.156C313.784 153.584 325.789 144.525 325.789 144.525C330.021 152.625 331.765 161.794 330.802 170.882C329.839 179.97 326.212 188.571 320.376 195.603C320.376 195.603 339.01 184.187 341.404 210.592C343.797 236.996 327.594 328.436 327.594 328.436L309.549 325.306L122.139 331.088Z" fill="#F4CFDF"/>
<path d="M122.138 334.771C121.292 334.793 120.464 334.524 119.793 334.007C119.123 333.491 118.65 332.759 118.456 331.935C115.767 320.629 92.6773 220.977 102.584 202.858C109.949 189.417 120.997 187.833 128.362 189.306C133.555 176.38 154.693 131.083 195.828 128.874C221.607 127.474 240.646 136.755 255.855 144.194C267.677 149.975 277.951 154.984 288.005 153.548C312.053 150.086 323.469 141.689 323.579 141.616C323.996 141.303 324.474 141.083 324.981 140.969C325.489 140.854 326.016 140.849 326.526 140.953C327.032 141.06 327.51 141.273 327.929 141.578C328.348 141.882 328.698 142.272 328.956 142.721C332.695 149.949 334.647 157.968 334.647 166.105C334.647 174.243 332.695 182.262 328.956 189.49C331.171 189.381 333.374 189.877 335.327 190.926C340.925 193.762 344.239 200.244 345.16 210.297C347.553 236.923 331.939 325.27 331.276 329.026C331.105 329.981 330.565 330.829 329.772 331.388C328.979 331.946 327.998 332.169 327.041 332.009L309.364 328.915L122.359 334.771H122.138ZM123.832 196.229C119.671 196.229 113.779 198.034 109.102 206.394C102.731 217.92 115.215 285.386 124.974 327.295L309.364 321.55C309.621 321.513 309.881 321.513 310.138 321.55L324.5 324.054C327.483 306.893 339.709 233.645 337.647 210.923C337.021 203.558 335.032 199.065 331.902 197.482C330.293 196.976 328.594 196.826 326.922 197.042C325.249 197.259 323.644 197.836 322.217 198.734C321.477 199.184 320.602 199.36 319.746 199.229C318.889 199.098 318.106 198.669 317.535 198.019C316.963 197.368 316.639 196.536 316.62 195.67C316.6 194.804 316.887 193.959 317.429 193.283C322.434 187.357 325.711 180.167 326.9 172.502C328.089 164.837 327.144 156.992 324.169 149.828C313.21 155.608 301.294 159.351 288.999 160.876C276.589 162.644 265.43 157.193 252.541 150.859C237.332 143.494 220.171 134.987 196.16 136.129C154.141 138.375 134.181 194.351 133.96 195.051C133.796 195.531 133.534 195.971 133.192 196.345C132.85 196.719 132.434 197.018 131.971 197.224C131.507 197.427 131.005 197.531 130.498 197.531C129.991 197.531 129.49 197.427 129.025 197.224C127.368 196.582 125.609 196.245 123.832 196.229Z" fill="#093F68"/>
<path d="M141.362 355.43C156.961 355.43 169.608 344.532 169.608 331.088C169.608 317.644 156.961 306.745 141.362 306.745C125.762 306.745 113.116 317.644 113.116 331.088C113.116 344.532 125.762 355.43 141.362 355.43Z" fill="#FFC9B0"/>
<path d="M141.362 359.076C123.796 359.076 109.47 346.518 109.47 331.088C109.47 315.658 123.796 303.063 141.362 303.063C158.928 303.063 173.291 315.621 173.291 331.088C173.291 346.555 158.965 359.076 141.362 359.076ZM141.362 310.428C127.847 310.428 116.836 319.709 116.836 331.088C116.836 342.467 127.883 351.711 141.362 351.711C154.84 351.711 165.925 342.467 165.925 331.088C165.925 319.709 154.914 310.428 141.362 310.428Z" fill="#093F68"/>
<path d="M305.976 355.43C321.576 355.43 334.222 344.532 334.222 331.088C334.222 317.644 321.576 306.745 305.976 306.745C290.376 306.745 277.73 317.644 277.73 331.088C277.73 344.532 290.376 355.43 305.976 355.43Z" fill="#FFC9B0"/>
<path d="M305.976 359.076C288.373 359.076 274.048 346.518 274.048 331.088C274.048 315.658 288.373 303.063 305.976 303.063C323.579 303.063 337.868 315.621 337.868 331.088C337.868 346.555 323.506 359.076 305.976 359.076ZM305.976 310.428C292.424 310.428 281.413 319.709 281.413 331.088C281.413 342.467 292.461 351.711 305.976 351.711C319.491 351.711 330.503 342.467 330.503 331.088C330.503 319.709 319.491 310.428 305.976 310.428Z" fill="#093F68"/>
<path d="M224.405 410.375C201.843 410.346 180.215 401.363 164.272 385.399C148.328 369.434 139.373 347.795 139.373 325.233V246.387C139.373 246.387 149.905 268.483 181.134 238.58C271.838 284.539 309.659 246.387 309.659 246.387V325.233C309.659 336.423 307.453 347.504 303.167 357.841C298.881 368.178 292.6 377.569 284.682 385.477C276.764 393.384 267.365 399.654 257.022 403.926C246.679 408.198 235.596 410.39 224.405 410.375Z" fill="#FFC9B0"/>
<path d="M224.405 414.059C200.876 414 178.328 404.62 161.7 387.971C145.072 371.322 135.72 348.763 135.69 325.233V246.388C135.677 245.542 135.956 244.717 136.479 244.052C137.002 243.387 137.738 242.923 138.564 242.737C139.389 242.551 140.253 242.655 141.011 243.032C141.769 243.408 142.374 244.034 142.724 244.804C143.517 246.249 144.617 247.502 145.947 248.476C147.277 249.449 148.804 250.119 150.421 250.439C155.393 251.286 164.305 249.481 178.409 235.929C178.959 235.404 179.657 235.062 180.409 234.95C181.161 234.838 181.929 234.961 182.607 235.303C228.162 258.356 259.612 259.387 277.951 256.183C297.616 252.759 306.786 243.847 306.897 243.773C307.415 243.262 308.072 242.916 308.787 242.778C309.501 242.641 310.24 242.718 310.911 243C311.576 243.282 312.144 243.753 312.544 244.356C312.943 244.958 313.157 245.665 313.157 246.388V325.233C313.128 348.769 303.77 371.334 287.135 387.984C270.499 404.634 247.942 414.01 224.405 414.059ZM143.056 255.373V325.344C143.085 346.939 151.677 367.642 166.947 382.912C182.218 398.183 202.92 406.775 224.516 406.804C246.111 406.775 266.814 398.183 282.085 382.912C297.355 367.642 305.947 346.939 305.976 325.344V253.79C291.724 262.812 252.762 278.206 181.797 243C169.387 254.416 158.412 259.351 149.169 257.73C147.008 257.31 144.939 256.512 143.056 255.373Z" fill="#093F68"/>
<path d="M185.001 320.703C189.354 320.703 192.882 317.175 192.882 312.822C192.882 308.47 189.354 304.941 185.001 304.941C180.649 304.941 177.12 308.47 177.12 312.822C177.12 317.175 180.649 320.703 185.001 320.703Z" fill="#093F68"/>
<path d="M266.314 320.703C270.667 320.703 274.195 317.175 274.195 312.822C274.195 308.47 270.667 304.941 266.314 304.941C261.962 304.941 258.433 308.47 258.433 312.822C258.433 317.175 261.962 320.703 266.314 320.703Z" fill="#093F68"/>
<path d="M193.361 387.986C193.217 383.817 193.915 379.661 195.411 375.767C196.907 371.873 199.172 368.32 202.071 365.32C204.97 362.32 208.443 359.934 212.283 358.304C216.123 356.674 220.252 355.835 224.424 355.835C228.596 355.835 232.725 356.674 236.565 358.304C240.405 359.934 243.878 362.32 246.777 365.32C249.676 368.32 251.941 371.873 253.437 375.767C254.934 379.661 255.631 383.817 255.487 387.986H193.361Z" fill="white"/>
<path d="M224.442 352.152C233.656 352.162 242.489 355.829 249.001 362.348C255.512 368.866 259.17 377.703 259.17 386.917C259.17 387.893 258.782 388.83 258.091 389.521C257.4 390.211 256.464 390.599 255.487 390.599H193.361C192.384 390.599 191.447 390.211 190.757 389.521C190.066 388.83 189.678 387.893 189.678 386.917C189.678 377.697 193.341 368.854 199.86 362.335C206.38 355.815 215.222 352.152 224.442 352.152ZM251.547 383.234C250.671 376.661 247.439 370.629 242.45 366.26C237.461 361.892 231.055 359.483 224.424 359.483C217.793 359.483 211.387 361.892 206.398 366.26C201.409 370.629 198.176 376.661 197.301 383.234H251.547Z" fill="#093F68"/>
<path d="M224.074 343.02C221.434 343.009 218.798 342.787 216.193 342.357C215.71 342.272 215.247 342.093 214.833 341.83C214.419 341.567 214.06 341.225 213.778 340.823C213.496 340.421 213.296 339.967 213.189 339.488C213.082 339.009 213.07 338.514 213.155 338.03C213.24 337.546 213.419 337.084 213.682 336.67C213.945 336.255 214.288 335.897 214.689 335.615C215.091 335.333 215.545 335.132 216.024 335.025C216.503 334.919 216.999 334.907 217.482 334.992C220.876 335.57 224.335 335.669 227.757 335.286C226.406 329.322 224.212 323.58 221.238 318.236C220.796 317.375 220.711 316.375 221 315.451C221.289 314.528 221.931 313.755 222.785 313.301C223.65 312.847 224.659 312.755 225.591 313.045C226.524 313.335 227.302 313.983 227.757 314.848C231.439 321.624 236.853 333.776 234.459 339.079C234.125 339.848 233.619 340.529 232.981 341.072C232.343 341.615 231.589 342.004 230.777 342.21C228.582 342.74 226.332 343.012 224.074 343.02Z" fill="#093F68"/>
<path d="M165.843 299.453C163.945 299.949 161.927 299.671 160.234 298.68C158.541 297.689 157.311 296.066 156.815 294.169C156.318 292.271 156.596 290.253 157.587 288.56C158.578 286.867 160.201 285.637 162.099 285.141L197.299 272.274C199.133 271.6 201.16 271.682 202.933 272.503C204.706 273.323 206.081 274.814 206.755 276.648C207.429 278.482 207.347 280.508 206.527 282.281C205.707 284.055 204.216 285.43 202.382 286.104L167.187 299.007C166.752 299.191 166.302 299.34 165.843 299.453Z" fill="#093F68"/>
<path d="M289.782 299.672L288.44 299.433L253.206 285.958C251.42 285.237 249.988 283.846 249.215 282.082C248.443 280.318 248.392 278.321 249.074 276.52C249.756 274.719 251.116 273.257 252.863 272.446C254.61 271.636 256.604 271.542 258.42 272.184L293.462 285.476C295.354 285.996 296.962 287.245 297.932 288.95C298.902 290.655 299.156 292.676 298.636 294.568C298.117 296.459 296.867 298.067 295.162 299.038C293.457 300.008 291.437 300.261 289.545 299.742L289.782 299.672Z" fill="#093F68"/>
<path d="M229.635 438.769H220.612C217.154 438.769 214.352 441.571 214.352 445.029V449.448C214.352 452.906 217.154 455.709 220.612 455.709H229.635C233.092 455.709 235.895 452.906 235.895 449.448V445.029C235.895 441.571 233.092 438.769 229.635 438.769Z" fill="white"/>
<path d="M229.635 459.391H220.612C217.975 459.391 215.446 458.344 213.581 456.479C211.717 454.614 210.669 452.085 210.669 449.448V445.029C210.669 442.392 211.717 439.863 213.581 437.998C215.446 436.133 217.975 435.086 220.612 435.086H229.635C232.272 435.086 234.801 436.133 236.666 437.998C238.53 439.863 239.578 442.392 239.578 445.029V449.448C239.578 452.085 238.53 454.614 236.666 456.479C234.801 458.344 232.272 459.391 229.635 459.391ZM220.612 442.451C219.929 442.451 219.273 442.723 218.789 443.206C218.306 443.689 218.034 444.345 218.034 445.029V449.448C218.034 450.132 218.306 450.787 218.789 451.271C219.273 451.754 219.929 452.026 220.612 452.026H229.635C230.318 452.026 230.974 451.754 231.458 451.271C231.941 450.787 232.213 450.132 232.213 449.448V445.029C232.213 444.345 231.941 443.689 231.458 443.206C230.974 442.723 230.318 442.451 229.635 442.451H220.612Z" fill="#093F68"/>
<path d="M218.955 455.708L205.366 532.712L225.105 558.638L239.946 531.46L231.292 455.708H218.955Z" fill="white"/>
<path d="M225.142 562.321C224.57 562.321 224.006 562.188 223.495 561.932C222.984 561.677 222.539 561.306 222.196 560.848L202.42 535.07C201.823 534.239 201.572 533.209 201.72 532.197L215.309 455.267C215.458 454.402 215.911 453.619 216.586 453.059C217.261 452.498 218.114 452.197 218.992 452.21H231.439C232.35 452.204 233.23 452.536 233.91 453.142C234.59 453.747 235.022 454.583 235.122 455.488L243.739 531.203C243.826 531.967 243.672 532.74 243.297 533.412L228.567 560.59C228.274 561.13 227.851 561.587 227.337 561.922C226.822 562.256 226.232 562.457 225.621 562.505L225.142 562.321ZM209.343 531.792L224.7 551.899L236.227 530.724L228.088 459.391H222.122L209.343 531.792Z" fill="#093F68"/>
<path d="M159.112 499.164C158.135 499.164 157.199 498.776 156.508 498.085C155.817 497.394 155.429 496.458 155.429 495.481C155.429 480.75 155.761 456.408 155.429 454.014C155.231 453.073 155.409 452.091 155.925 451.279C156.441 450.467 157.255 449.889 158.191 449.669C158.671 449.555 159.168 449.539 159.653 449.621C160.139 449.702 160.603 449.881 161.019 450.145C161.434 450.41 161.792 450.755 162.072 451.16C162.352 451.565 162.547 452.022 162.647 452.505C163.126 454.604 162.979 477.068 162.647 495.592C162.62 496.524 162.24 497.411 161.584 498.074C160.928 498.737 160.044 499.127 159.112 499.164Z" fill="#093F68"/>
<path d="M292.203 491.062C291.226 491.062 290.29 490.674 289.599 489.983C288.908 489.293 288.521 488.356 288.521 487.379V458.102C288.521 457.125 288.908 456.189 289.599 455.498C290.29 454.808 291.226 454.42 292.203 454.42C293.18 454.42 294.117 454.808 294.807 455.498C295.498 456.189 295.886 457.125 295.886 458.102V487.379C295.886 488.356 295.498 489.293 294.807 489.983C294.117 490.674 293.18 491.062 292.203 491.062Z" fill="#093F68"/>
<path d="M277.436 485.317H255.34C254.363 485.317 253.426 484.929 252.736 484.239C252.045 483.548 251.657 482.611 251.657 481.634C251.657 480.658 252.045 479.721 252.736 479.03C253.426 478.34 254.363 477.952 255.34 477.952H277.436C278.412 477.952 279.349 478.34 280.04 479.03C280.73 479.721 281.118 480.658 281.118 481.634C281.118 482.611 280.73 483.548 280.04 484.239C279.349 484.929 278.412 485.317 277.436 485.317Z" fill="#093F68"/>
</g>
<path d="M339.384 73.3634C339.351 77.7486 339.712 81.0534 340.469 83.2765C341.228 85.5014 342.87 86.7481 345.386 87.0103C345.858 87.0595 346.294 87.025 346.722 86.9898C347.134 87.1126 347.553 87.2361 348.02 87.2847C350.541 87.5475 352.4 86.6657 353.606 84.6456C354.8 82.6258 355.84 79.4669 356.712 75.1693L362.445 41.8899C363.546 35.4022 364.245 30.7348 364.541 27.8892C364.945 24.0167 364.241 20.8903 362.444 18.5112C360.631 16.1322 358.078 14.7686 354.76 14.4229C354.589 14.405 354.454 14.43 354.283 14.419C354.112 14.3944 353.985 14.3421 353.809 14.3237C350.499 13.9788 347.712 14.7859 345.456 16.7425C343.199 18.6991 341.875 21.6125 341.471 25.485C341.175 28.3289 340.896 33.0401 340.636 39.6171L339.384 73.3634Z" fill="#5784BA"/>
<path d="M345.5 99.3955C342.295 99.0615 339.451 99.7913 336.975 101.581C334.495 103.378 333.111 105.719 332.81 108.609C332.47 111.876 333.345 114.56 335.443 116.665C337.542 118.768 340.117 119.982 343.17 120.3C346.278 120.624 349.085 119.984 351.597 118.384C354.107 116.781 355.531 114.329 355.877 111.011C356.178 108.12 355.324 105.545 353.322 103.281C351.321 101.028 348.714 99.7304 345.502 99.3957" fill="#5784BA"/>
<path d="M403.21 105.409C400.004 105.075 397.159 105.805 394.682 107.597C392.203 109.391 390.819 111.733 390.517 114.627C390.177 117.891 391.056 120.576 393.151 122.68C395.251 124.783 397.827 125.998 400.881 126.316C403.989 126.64 406.793 125.999 409.305 124.399C411.814 122.797 413.238 120.34 413.583 117.029C413.884 114.135 413.035 111.561 411.029 109.299C409.025 107.041 406.425 105.744 403.213 105.41" fill="#5784BA"/>
<path d="M443.429 37.0005C440.947 32.2174 437.107 28.1983 432.004 25.0449C426.931 21.9202 420.849 19.9678 413.919 19.2456C406.456 18.4679 399.648 19.3351 393.698 21.8293C387.741 24.3262 382.975 27.8291 379.53 32.241C376.066 36.6746 374.062 41.2858 373.575 45.9516C373.316 48.4442 374.112 50.877 375.93 53.1783C377.756 55.4907 380.19 56.8198 383.164 57.1297C388.239 57.6587 392.002 55.0418 394.372 49.3881C396.478 44.7263 398.837 41.2496 401.379 39.0508C403.768 36.9756 407.377 36.1726 412.103 36.6651C416.179 37.0899 419.275 38.5679 421.58 41.1883C423.851 43.7713 424.787 46.6706 424.435 50.049C424.278 51.6858 423.699 53.2536 422.753 54.5987C421.743 56.0309 420.541 57.3172 419.181 58.4213C417.739 59.5928 415.379 61.3348 412.164 63.606C408.418 66.2569 405.375 68.6022 403.131 70.5787C400.745 72.6862 398.747 75.195 397.227 77.9913C395.639 80.8722 394.615 84.4082 394.189 88.4891C393.826 91.9767 394.518 94.7791 396.247 96.8164C397.959 98.8331 400.23 100.008 403.002 100.296C408.301 100.849 411.934 98.3016 413.491 92.9845C414.228 90.7863 414.772 89.251 415.119 88.3799C415.434 87.5888 415.852 86.7896 416.366 85.9988C416.864 85.2317 417.619 84.3776 418.607 83.4628C419.64 82.4984 421.014 81.3809 422.686 80.1484C428.928 75.6356 433.344 72.3579 435.807 70.4042C438.348 68.3923 440.639 65.8922 442.621 62.9777C444.662 59.9945 445.912 56.3631 446.347 52.1881C446.897 46.9138 445.917 41.803 443.436 37.0029" fill="#5784BA"/>
</svg>
