<svg width="40" height="40" viewBox="0 0 40 40" fill="none" xmlns="http://www.w3.org/2000/svg">
<path d="M27.2907 2.99718C27.6172 2.2358 27.266 1.34813 26.4823 1.0796C22.2477 -0.371324 17.6324 -0.363953 13.3812 1.12697C8.65651 2.78392 4.72514 6.15273 2.36387 10.5678C0.00260162 14.9828 -0.616814 20.1229 0.62801 24.9725C1.87284 29.8221 4.89135 34.0284 9.08715 36.7604C13.283 39.4923 18.3508 40.5511 23.2895 39.7276C28.2281 38.9041 32.6782 36.2583 35.7606 32.3127C38.843 28.3672 40.3334 23.4091 39.9373 18.4179C39.581 13.927 37.7206 9.70322 34.6806 6.41763C34.118 5.80955 33.1641 5.84749 32.5999 6.45407C32.0357 7.06066 32.0757 8.00568 32.6302 8.62115C35.1244 11.3894 36.6498 14.9132 36.9467 18.6553C37.2834 22.8977 36.0165 27.1121 33.3965 30.4658C30.7765 33.8195 26.9939 36.0685 22.796 36.7685C18.5982 37.4684 14.2905 36.5684 10.7241 34.2463C7.15765 31.9242 4.59191 28.3488 3.53381 24.2266C2.47571 20.1045 3.00221 15.7354 5.00929 11.9826C7.01637 8.22982 10.358 5.36633 14.374 3.95792C17.9163 2.71563 21.756 2.68511 25.2966 3.84614C26.0838 4.10427 26.9642 3.75857 27.2907 2.99718Z" fill="white"/>
<path d="M20 1.5C20 0.671573 20.6726 -0.00585399 21.4987 0.056213C25.1908 0.333615 28.7444 1.63182 31.7557 3.81966C35.1727 6.30222 37.716 9.80279 39.0211 13.8197C40.3263 17.8365 40.3263 22.1635 39.0211 26.1803C37.716 30.1972 35.1727 33.6978 31.7557 36.1803C28.3388 38.6629 24.2236 40 20 40C15.7764 40 11.6612 38.6629 8.24429 36.1803C4.82734 33.6978 2.28403 30.1972 0.97887 26.1803C-0.171345 22.6403 -0.307896 18.8595 0.569221 15.2623C0.765472 14.4575 1.61757 14.0272 2.40546 14.2832C3.19334 14.5392 3.61756 15.3846 3.43198 16.1919C2.74431 19.1837 2.87767 22.316 3.83204 25.2533C4.94143 28.6676 7.10324 31.6431 10.0077 33.7533C12.9121 35.8635 16.41 37 20 37C23.59 37 27.0879 35.8635 29.9923 33.7533C32.8968 31.6431 35.0586 28.6676 36.168 25.2533C37.2773 21.839 37.2773 18.161 36.168 14.7467C35.0586 11.3324 32.8968 8.35689 29.9923 6.24671C27.4938 4.43139 24.556 3.33662 21.4981 3.06612C20.6729 2.99313 20 2.32843 20 1.5Z" fill="#5784BA"/>
<path d="M15.808 20.064C16.32 19.824 16.6 19.408 16.6 18.856C16.6 17.92 15.784 17.336 14.568 17.336C13.36 17.336 12.552 17.92 12.552 18.856C12.552 19.408 12.824 19.824 13.336 20.064C12.704 20.304 12.352 20.776 12.352 21.416C12.352 22.432 13.208 23.064 14.568 23.064C15.936 23.064 16.8 22.432 16.8 21.416C16.8 20.776 16.448 20.312 15.808 20.064ZM14.568 17.984C15.32 17.984 15.816 18.328 15.816 18.888C15.816 19.44 15.344 19.784 14.568 19.784C13.8 19.784 13.344 19.44 13.344 18.888C13.344 18.328 13.816 17.984 14.568 17.984ZM14.568 22.416C13.68 22.416 13.152 22.024 13.152 21.392C13.152 20.776 13.68 20.392 14.568 20.392C15.456 20.392 16 20.776 16 21.392C16 22.024 15.456 22.416 14.568 22.416ZM20.2204 23.064C21.5244 23.064 22.5004 22.024 22.5004 20.2C22.5004 18.376 21.5244 17.336 20.2204 17.336C18.9084 17.336 17.9324 18.376 17.9324 20.2C17.9324 22.024 18.9084 23.064 20.2204 23.064ZM20.2204 22.352C19.3404 22.352 18.7324 21.632 18.7324 20.2C18.7324 18.768 19.3404 18.048 20.2204 18.048C21.0924 18.048 21.7004 18.768 21.7004 20.2C21.7004 21.632 21.0924 22.352 20.2204 22.352Z" fill="#5784BA"/>
<path d="M24.2 21.056C24.782 21.056 25.172 20.6 25.172 19.91C25.172 19.22 24.782 18.764 24.2 18.764C23.618 18.764 23.222 19.226 23.222 19.91C23.222 20.594 23.618 21.056 24.2 21.056ZM23.864 23H24.326L27.194 18.8H26.732L23.864 23ZM24.2 20.714C23.84 20.714 23.612 20.408 23.612 19.91C23.612 19.412 23.84 19.106 24.2 19.106C24.566 19.106 24.788 19.406 24.788 19.91C24.788 20.414 24.566 20.714 24.2 20.714ZM26.858 23.036C27.44 23.036 27.836 22.574 27.836 21.89C27.836 21.206 27.44 20.744 26.858 20.744C26.276 20.744 25.886 21.206 25.886 21.89C25.886 22.574 26.276 23.036 26.858 23.036ZM26.858 22.694C26.492 22.694 26.27 22.394 26.27 21.89C26.27 21.386 26.492 21.086 26.858 21.086C27.218 21.086 27.446 21.392 27.446 21.89C27.446 22.388 27.218 22.694 26.858 22.694Z" fill="#5784BA"/>
</svg>
