<svg width="76" height="76" viewBox="0 0 76 76" fill="none" xmlns="http://www.w3.org/2000/svg">
<circle cx="37.691" cy="37.9992" r="37.691" fill="#1000C2"/>
<mask id="mask0" mask-type="alpha" maskUnits="userSpaceOnUse" x="0" y="0" width="76" height="76">
<circle cx="37.691" cy="37.9992" r="37.691" fill="#C4C4C4"/>
</mask>
<g mask="url(#mask0)">
<path fill-rule="evenodd" clip-rule="evenodd" d="M57.0148 68.2408C56.2646 67.9732 55.5415 67.6642 54.8826 67.2095C52.9834 65.7953 51.745 63.667 50.5749 61.6506C48.9267 58.7178 47.7525 55.5927 46.9408 52.3327C46.5921 50.932 46.4736 49.308 45.6812 48.0662C43.8849 45.466 38.6175 45.8029 35.8205 46.2594C33.9475 46.5909 33.5603 48.6878 33.1349 50.2395C32.7807 51.5287 32.5488 52.8326 32.3542 54.1539C31.8911 54.4585 31.3683 54.7058 30.87 54.9213C25.4394 56.5872 24.4849 59.6756 22.4106 64.4463C18.9073 71.3803 9.40085 74.0953 7.96489 82.3015C7.0397 87.7193 9.67066 92.8162 12.3832 97.3202C14.9094 102.24 18.4361 104.601 24.0525 103.439C29.3204 102.256 34.3831 100.279 39.5583 98.7508C42.0648 98.1343 44.5674 96.5307 47.2041 97.0898C52.637 98.3104 58.219 98.8843 63.7868 98.7259C71.6041 99.0421 71.6029 91.5363 70.8005 85.7237C70.2385 76.6781 65.6778 70.8698 57.0148 68.2408Z" fill="#D08B5B"/>
<path fill-rule="evenodd" clip-rule="evenodd" d="M57.5371 81.33C58.1903 81.7621 58.7397 82.4173 59.1807 83.1068C57.3395 82.9152 55.5015 82.6943 53.6675 82.4428C53.9076 82.2893 54.1499 82.1392 54.3978 81.9974C55.3021 81.4877 56.5273 80.662 57.5371 81.33ZM26.946 86.7747C26.6086 86.6426 26.4781 86.128 26.3466 85.833C25.9343 84.908 25.5581 83.9672 25.1666 83.0332C26.6529 82.6093 28.0983 82.1391 29.638 81.9131C31.2936 81.6704 32.9736 81.6117 34.6445 81.6662C38.0289 81.7767 41.3819 82.33 44.7093 82.9233C48.0328 83.5159 51.3561 84.0853 54.7028 84.5322C57.9818 84.9699 61.2711 85.2903 64.5665 85.5715C65.2067 85.6263 66.2743 85.8566 66.7892 85.3525C67.1969 84.9533 67.2101 84.217 66.7 83.8925C66.3822 83.6902 65.9218 83.6872 65.5588 83.6406C65.1016 83.5817 64.6426 83.5426 64.1826 83.5121C63.9952 83.4997 63.8078 83.4883 63.6204 83.4769C65.1251 82.9093 66.6967 82.5998 68.328 82.6861C68.4203 83.2467 68.8359 83.8235 69.0634 84.2859C69.4606 85.0932 69.7703 85.9102 69.9735 86.7879C70.3984 88.6226 70.4169 90.5268 70.2969 92.3981C70.1867 93.9583 69.9499 95.6841 68.7265 96.789C67.8003 97.6257 66.4935 97.9354 65.2811 98.0328C63.872 98.146 62.4412 98.0251 61.0439 97.8362C59.0842 97.5711 57.1152 97.2206 55.194 96.7508C51.4729 95.8408 47.9062 94.393 44.6155 92.43C43.0107 91.4729 41.4795 90.396 39.8527 89.4752C38.195 88.5367 36.4312 87.8087 34.5791 87.3567C32.5064 86.8509 30.3396 86.635 28.2093 86.7598C27.8397 86.7814 27.3056 86.9155 26.946 86.7747ZM24.544 85.8354C24.7618 86.5425 24.9285 87.3498 25.3934 87.9439C25.8538 88.5327 26.5485 88.7404 27.2682 88.7928C28.1359 88.8558 29.0139 88.8155 29.8835 88.8478C31.6671 88.9141 33.4263 89.2039 35.1314 89.7355C36.7203 90.231 38.1954 91.0038 39.6162 91.8612C40.9301 92.6541 42.2054 93.5053 43.5198 94.2958C43.1699 94.4562 42.8241 94.6297 42.4764 94.7808C41.747 95.0977 41.0132 95.4034 40.2761 95.7015C38.8225 96.2892 37.3628 96.8626 35.8881 97.3954C32.9146 98.4696 29.8922 99.4081 26.8334 100.208C25.3745 100.589 23.8949 101.034 22.3793 101.098C21.0354 101.154 19.7905 100.774 18.7066 99.9745C16.4585 98.3164 14.6698 95.9232 13.2239 93.5626C12.3649 92.1601 11.6153 90.6866 10.9952 89.1629C10.6816 88.3924 10.3972 87.6101 10.1412 86.8185C10.0211 86.4469 9.90726 86.0732 9.79944 85.6977C9.75201 85.5327 9.70657 85.3671 9.66155 85.2013C11.9604 84.4995 14.2866 83.866 16.6674 83.5143C17.9385 83.3265 19.2265 83.2314 20.5116 83.2453C21.1494 83.2521 21.7869 83.2866 22.4214 83.3524C22.7629 83.3879 23.103 83.4335 23.4417 83.49C23.5817 83.5133 23.7255 83.5477 23.8698 83.573C24.0902 84.3285 24.3124 85.0833 24.544 85.8354ZM72.0646 82.8317C72.1885 82.581 72.2407 82.3343 72.2852 82.0614C72.319 81.8532 72.4089 81.5601 72.3302 81.2897C72.242 80.987 72.002 80.7162 71.8296 80.458C71.6393 80.1726 71.4491 79.887 71.2592 79.6013C70.8793 79.0299 70.5003 78.458 70.1219 77.8857C68.5766 75.5486 67.0418 73.2047 65.5046 70.8624C64.1404 68.7837 62.7992 66.6863 61.3935 64.6356C60.1915 62.8819 58.8813 61.1573 57.236 59.7934C55.1558 58.069 52.6787 57.2567 50.0912 56.6228C49.8086 56.3294 49.4312 56.1691 49.0277 56.2016C48.4577 55.5549 48.0046 55.1031 47.7993 54.2807C47.7009 53.8868 47.7317 52.7799 47.3482 52.5468C46.8927 52.2699 46.6547 52.6364 46.5291 53.0494C46.1088 54.4314 46.5912 56.2895 47.7014 57.6738C47.2337 59.2909 46.6135 61.5892 45.5072 62.8848C44.3226 64.272 42.6843 64.7038 40.9167 64.7323C37.5457 64.7866 34.1784 63.5333 31.6072 61.3611C30.8257 60.701 30.0999 59.9637 29.4432 59.1795C28.9506 58.5912 28.368 57.6833 27.9827 56.997C27.9827 56.7296 27.6671 56.45 30.8803 56.2339C34.0936 56.0178 34.3373 51.6163 34.4088 51.0173C34.4668 50.5308 34.7137 49.7758 34.3711 49.3792C34.2257 49.2107 33.9273 49.1836 33.7429 49.298C33.3953 49.514 33.2811 50.0663 33.1718 50.4413C33.0187 50.9667 32.5182 54.2274 31.5699 54.6049C31.1259 54.7816 30.6167 54.7849 30.147 54.8176C29.5671 54.8581 28.9859 54.8878 28.4083 54.9553C28.1952 54.9802 27.9628 55.0491 27.7526 55.0511C27.6159 55.0524 27.4748 54.9859 27.3426 54.9393C26.8964 54.7815 26.4506 54.8999 25.991 54.9617C21.9274 55.508 17.7432 56.7549 14.2771 58.9985C11.222 60.9759 9.06967 63.8199 7.64944 67.1449C6.20035 70.5383 5.36975 74.2077 4.67367 77.8201C4.4405 79.0304 4.23686 80.2464 4.06192 81.4665C3.89284 82.6455 3.68135 83.8508 3.63072 85.0417C3.61068 85.5129 3.72325 85.9506 3.89647 86.3811C4.09155 86.8655 4.55264 87.0565 4.99489 87.2827C5.9657 87.7795 6.98982 88.1648 8.04495 88.4376C8.68954 89.6107 9.23201 90.8296 9.66795 92.0946C9.50622 92.4152 9.50286 92.8939 9.47175 93.2055C9.3946 93.9814 9.3616 94.7613 9.35469 95.5407C9.34078 97.1029 9.43469 98.6635 9.5083 100.223C9.58294 101.805 9.83107 108.047 9.8715 108.809C9.90295 109.401 9.86061 110.23 10.1724 110.755C10.6516 111.563 11.8341 111.536 12.3819 110.881C25.991 113.808 51.5724 112.926 61.8753 111.454C63.2158 111.262 62.7949 111.475 63.1358 111.136C63.3916 110.881 63.6094 110.446 63.6801 110.095C63.7746 109.628 63.6221 109.205 63.3546 108.827C63.0734 108.429 63.0221 107.785 62.9177 107.313C62.6707 106.195 62.5479 101.287 62.4325 100.743C62.3965 100.573 62.3617 100.394 62.3197 100.215C64.2096 100.394 66.1788 100.394 67.9768 99.7618C68.9963 99.4032 69.9472 98.8399 70.6791 98.0357C71.5653 97.0619 72.0584 95.836 72.3119 94.5565C72.6391 92.9065 72.7086 91.1973 72.6443 89.52C72.555 87.5377 72.2263 85.5275 71.4106 83.7074C71.679 83.4581 71.904 83.1572 72.0646 82.8317Z" fill="black"/>
<path fill-rule="evenodd" clip-rule="evenodd" d="M25.299 18.5812C25.7461 18.1003 26.3179 17.7419 26.9431 17.6274C26.3717 17.9136 25.8131 18.2118 25.299 18.5812ZM24.4233 22.7284C24.3442 22.3618 24.2911 21.9918 24.2744 21.6218C24.3743 21.774 24.5339 21.8758 24.7131 21.9283C24.5974 22.1882 24.4989 22.456 24.4233 22.7284ZM54.3407 28.4753C53.8246 26.3218 51.4169 22.1795 50.8478 21.3823C50.2298 19.4082 53.6002 17.825 51.7672 16.2813C50.9373 15.5848 49.8406 15.3383 48.8117 15.0913C41.688 13.3762 34.0343 14.2412 27.4273 17.395C26.4223 17.183 25.3753 17.5974 24.6445 18.3251C21.2111 21.7846 25.8902 28.0266 26.9133 31.9268C28.6688 36.2756 25.0527 37.0071 25.4405 40.6866C25.7418 42.5875 27.6623 43.0899 29.283 43.3772C29.5428 43.4382 29.8901 43.4473 29.9739 43.7226C30.2365 45.3294 31.1367 46.8606 32.3453 47.8998C32.2396 48.2137 32.3203 48.5948 32.693 48.8705C36.0697 51.3862 40.3275 52.6451 44.5391 52.4188C49.5582 52.1491 52.1538 49.2651 52.7801 48.5226C56.2432 43.8341 55.8294 37.6481 55.123 32.0606C54.6309 28.1682 55.2549 32.2903 54.3407 28.4753Z" fill="#D08B5B"/>
<path fill-rule="evenodd" clip-rule="evenodd" d="M38.8637 10.5554C39.0215 10.0611 39.4681 9.76375 39.9793 9.82512C40.4319 9.8787 40.9165 10.329 40.8613 10.826C40.8509 10.9219 40.8371 11.0118 40.8208 11.0965L40.8229 11.0972L40.8251 11.0973L40.8139 11.1302C40.7802 11.2883 40.7337 11.4301 40.6647 11.5641C40.5768 11.8207 40.4923 12.0783 40.4087 12.3367C40.5294 12.3315 40.6526 12.3384 40.7777 12.3618C40.907 12.0299 41.0371 11.6989 41.1665 11.3661C41.3053 11.0109 41.4027 10.5546 41.6768 10.2797C42.0277 9.92883 42.6364 9.85623 43.064 10.1069C43.5157 10.3713 43.677 10.8415 43.5787 11.3454C43.5287 11.6024 43.3574 11.7813 43.1455 11.8937L43.1226 11.9054L42.9597 12.2926C43.0097 12.271 43.0614 12.2512 43.1174 12.2347C43.2054 12.2088 43.2916 12.1924 43.3761 12.1855C43.6089 11.7628 43.8649 11.3523 44.1296 10.9495C44.4339 10.4863 45.0288 10.2892 45.5279 10.5822C45.9745 10.8441 46.2142 11.5321 45.8943 11.9841C45.6512 12.3272 45.421 12.6772 45.1943 13.0307C45.2331 13.0376 45.2719 13.0463 45.309 13.0575C45.3262 13.0342 45.3443 13.0109 45.3633 12.9875C45.6107 12.6798 45.8986 12.4491 46.1944 12.1932C46.4711 11.953 46.5987 11.5753 46.9625 11.3929C47.4203 11.1639 47.972 11.2737 48.2445 11.73C48.829 12.7075 47.8479 13.4214 47.2203 14.0134C47.766 13.672 48.3341 13.36 48.9169 13.0904C49.2445 12.9391 49.5773 12.7931 49.9153 12.6669C50.4162 12.4802 50.8214 12.5399 51.2326 12.8873C51.4162 13.0428 51.5076 13.3826 51.4231 13.6089C51.2593 14.0428 51.0007 14.3064 50.5472 14.4317C50.2282 14.5199 49.9015 14.5795 49.5825 14.672C49.048 14.8258 48.529 15.0134 48.0255 15.2476C48.0617 15.2701 48.0962 15.2943 48.1281 15.3219C48.504 15.2001 48.8868 15.0946 49.2713 15.0048C49.909 14.8549 50.558 14.7536 51.2099 14.6902L51.4265 14.67C52.2081 14.5948 53.1479 14.4561 53.6276 15.2061C53.7853 15.4533 53.8026 15.8613 53.6276 16.1058C53.2931 16.576 52.9603 16.6694 52.4068 16.678C52.9517 16.7359 53.4957 16.8076 54.0371 16.8915C54.4102 16.9485 54.7834 17.0132 55.155 17.0849L55.3406 17.1214C55.7932 17.2121 56.2984 17.2648 56.6872 17.5276C57.5355 18.1015 57.1372 19.219 56.1975 19.3383C55.7432 19.3953 55.2389 19.2026 54.7931 19.1127C54.3604 19.0254 53.9258 18.9485 53.4896 18.8811C53.2637 18.8456 53.0379 18.8145 52.8111 18.786C53.2724 18.8525 53.7301 18.9467 54.1759 19.0798L54.2997 19.1173C55.1613 19.3806 56.3244 19.7999 56.5933 20.7228C56.7562 21.2838 56.3105 21.7729 55.7708 21.8058C55.269 21.836 54.8509 21.5361 54.425 21.3149C54.1147 21.1541 53.7991 21.034 53.4646 20.9311C53.1189 20.8248 52.7663 20.7367 52.4111 20.6649C52.7113 20.8307 53.0036 21.0129 53.2842 21.2168L53.4132 21.3123C54.1591 21.8694 55.2964 22.732 55.0337 23.7763C54.9509 24.1056 54.5845 24.4202 54.2328 24.3865C53.3172 24.301 52.812 23.3235 52.1214 22.7997C51.9412 22.6631 51.7438 22.5283 51.5369 22.397C52.5835 23.6484 53.4163 25.0952 54.05 26.5896C55.4426 29.8771 55.8698 32.9216 55.8801 36.4565L55.8803 36.566C55.882 38.5158 55.838 40.501 55.6484 42.4422C55.4725 44.2356 55.1501 46.0057 54.3388 47.6297C52.9792 50.353 50.3299 52.4739 47.4082 53.2812C44.1572 54.18 40.5233 53.4774 37.8602 51.4031C37.1809 50.8742 38.0818 49.7256 38.7758 50.2138C41.5475 52.1628 45.1322 52.7799 48.3134 51.461C50.8369 50.4152 52.8689 48.1655 53.7301 45.5752C54.2783 43.9274 54.4379 42.1703 54.6335 40.453L54.6466 40.3386C54.8535 38.5426 54.9733 36.7345 54.9716 34.9264C54.969 31.5687 54.4879 28.8047 53.0146 25.759C52.3214 24.3243 51.4223 22.9977 50.348 21.8334C50.0222 21.9 49.6756 21.8066 49.3463 21.7712C49.1782 21.7531 49.01 21.7358 48.8419 21.7202C49.0137 21.8315 49.1821 21.9473 49.3476 22.0657L49.5648 22.2227C50.2443 22.7105 51.1064 23.2662 50.9317 24.2093C50.8843 24.4643 50.6308 24.6985 50.3851 24.7564C49.4945 24.9691 48.8824 24.1013 48.2807 23.5862C47.7574 23.1385 47.2099 22.7375 46.6521 22.3356C46.5254 22.2448 46.3978 22.1541 46.2694 22.0642C46.3901 22.2053 46.5074 22.3485 46.622 22.4931L46.7913 22.7082C47.3036 23.3509 48.0421 24.1861 47.5858 25.0192C47.4565 25.2543 47.1806 25.4107 46.9134 25.4055C45.9943 25.3865 45.6288 24.3407 45.1977 23.6804C44.827 23.1143 44.4244 22.581 44.008 22.0478C43.8934 21.9017 43.7778 21.7557 43.6606 21.6096C41.7303 21.7098 39.8069 21.9657 37.9171 22.3745C36.6188 22.6554 35.342 23.0193 34.0747 23.4177L33.9693 23.4513C33.2835 23.6726 32.5768 23.956 32.0823 24.4418C32.0117 24.7766 32.0659 25.1296 32.1334 25.464L32.1861 25.7198C32.4029 26.7899 32.5507 27.8401 32.4401 28.9387C32.3254 30.0718 31.9849 31.0908 31.5693 32.1434C31.3728 32.6395 31.1693 32.5497 31.0995 33.0821C31.046 33.4876 31.0791 33.9062 31.1156 34.3151L31.1462 34.6618C31.2228 35.5699 31.2613 36.56 30.6676 37.3093C30.5753 37.4242 30.3779 37.3784 30.3124 37.2635C30.2865 37.2176 30.2589 37.1736 30.2287 37.1312C29.9425 36.7155 29.5037 36.4787 29.0019 36.3871C28.9382 36.3758 28.9632 36.2903 29.0166 36.2834C29.4408 36.2332 29.8425 36.3395 30.1839 36.5591C30.022 35.9978 28.7686 36.2708 28.3566 36.3798L28.3424 36.3836C27.8286 36.5219 27.3424 36.7466 26.9139 37.0647C26.0518 37.7042 25.5535 38.7016 25.5785 39.7759C25.6035 40.8321 26.1475 41.8078 27.082 42.3134C27.5329 42.5572 28.0459 42.6747 28.5562 42.6695C29.089 42.6643 29.5632 42.4301 30.0968 42.463C30.4055 42.482 30.6417 42.8139 30.4632 43.1034C30.3443 43.297 30.1891 43.4491 30.0098 43.5658C30.4469 44.5761 31.0047 45.5398 31.6478 46.4292C32.0039 46.9227 32.4073 47.3781 32.8513 47.7939C33.1979 48.1188 33.9488 48.4948 33.9066 49.0367C33.8919 49.232 33.791 49.3513 33.6134 49.4239C33.0613 49.6502 32.3899 48.871 32.0206 48.4953L31.9909 48.4654C31.5305 48.0056 31.1107 47.4974 30.7452 46.9581C30.0968 46.0005 29.6942 44.921 29.5278 43.787C28.6424 44.0541 27.47 43.8035 26.7475 43.4759C24.4767 42.4474 23.7344 39.3818 25.1146 37.3404C25.3819 36.9454 25.7164 36.6075 26.0975 36.3344C26.0138 36.2885 25.9354 36.2298 25.8656 36.1554C25.4793 35.7441 25.2061 35.2073 24.9351 34.7125L24.9026 34.6533C24.6619 34.2177 24.4349 33.7753 24.2222 33.326L24.143 33.1573C23.668 32.1331 23.2516 31.6854 22.9128 30.6085C22.5869 29.5696 22.33 28.5109 22.1636 27.434L22.1194 27.1489C22.0232 26.5241 21.9322 25.8559 22.0024 25.2214C21.5187 25.3796 21.0325 25.4772 20.554 25.2396C20.2385 25.0831 20.0643 24.6268 20.1721 24.2992C20.2506 24.0581 20.3816 23.8688 20.548 23.7202C20.4488 23.67 20.3557 23.6061 20.2738 23.5352L20.2023 23.4731C19.9126 23.2206 19.8919 22.7409 20.0678 22.4246C20.085 22.3944 20.1023 22.3632 20.1187 22.333C20.2859 22.0331 20.6316 21.8369 20.973 21.8421C21.0282 21.8429 21.0834 21.8429 21.1394 21.8421C20.9799 21.8066 20.8239 21.7522 20.6756 21.6606C20.0066 21.2483 20.0911 20.1308 20.9006 19.9337C21.2403 19.8516 21.6153 19.8854 21.9895 19.9735C21.9757 19.9657 21.9619 19.9579 21.9481 19.9493C21.6653 19.7756 21.4282 19.4359 21.4549 19.0876C21.4843 18.7021 21.6084 18.4273 21.9481 18.2251C22.2429 18.0505 22.6602 18.0341 22.9533 18.2251C23.2076 18.3919 23.4568 18.576 23.6965 18.7739C23.4559 18.4774 23.2473 18.1551 23.1628 17.8128C23.0585 17.3867 23.2326 16.9226 23.6154 16.6979C23.9206 16.519 24.243 16.5389 24.531 16.6771C24.5155 16.4533 24.5698 16.2251 24.7181 16.0229C25.0215 15.6081 25.5733 15.3695 26.0535 15.672C26.1164 15.7117 26.2009 15.78 26.2828 15.8638C26.1233 15.3548 26.2673 14.8207 26.8113 14.5908C27.1432 14.4499 27.5924 14.5208 27.8803 14.7636C27.6976 13.7723 29.1571 13.0437 29.7244 14.0679C29.8531 14.2999 29.9805 14.5442 30.0944 14.7941L30.1365 14.8881L30.1408 14.8863L30.1118 14.8176L30.0822 14.7489C29.9244 14.3816 29.7235 13.9996 29.6684 13.6012C29.5873 13.0117 29.8494 12.4525 30.4891 12.3661C30.8193 12.3212 31.1866 12.4715 31.4081 12.7344C31.2883 11.8199 32.3073 11.1552 33.041 11.838C33.3884 12.1613 33.5738 12.634 33.7945 13.0489C33.9195 13.2831 34.0471 13.5165 34.1721 13.7515C34.204 13.7135 34.2385 13.6755 34.2747 13.6383C34.0893 13.0817 33.9453 12.5113 33.8238 11.9374C33.7083 11.3964 33.9781 10.8346 34.535 10.6817C35.0411 10.5416 35.6748 10.8546 35.7877 11.3947C35.867 11.7749 35.961 12.151 36.0644 12.5251C36.1351 12.5078 36.205 12.4957 36.2739 12.4871C36.2797 12.4168 36.2862 12.3461 36.2935 12.2758L36.3206 12.0258C36.3809 11.4546 36.4417 10.8025 36.7395 10.3169C37.2473 9.48718 38.5491 9.83117 38.5629 10.8121C38.5706 11.3195 38.3646 11.8225 38.293 12.3246C38.262 12.5433 38.2439 12.7645 38.2335 12.9858C38.3723 12.2512 38.5629 11.526 38.7836 10.8121C38.8094 10.7266 38.837 10.641 38.8637 10.5554ZM27.6331 38.885C28.7754 38.7078 29.8194 39.3465 30.4962 40.241C30.6195 40.4044 30.5384 40.6351 30.4272 40.7726C30.3471 40.8737 30.2393 40.8858 30.1177 40.9013C29.9781 40.9195 29.8013 40.8063 29.7401 40.6844C29.3048 39.8132 28.528 39.2627 27.6331 38.9239C27.6167 38.9178 27.6115 38.8884 27.6331 38.885ZM29.2161 23.2757L29.2506 23.2385C29.4818 22.9981 29.1165 22.631 28.8848 22.8718C28.641 23.1254 28.4789 23.4335 28.323 23.7456C28.1745 24.0433 28.6205 24.3062 28.7697 24.0074L28.8376 23.8716C28.9442 23.6605 29.0579 23.4518 29.2161 23.2757ZM26.0085 22.7824C26.3361 22.727 26.1972 22.2272 25.871 22.2824C25.4484 22.3538 25.0274 22.4349 24.6047 22.5064C24.2772 22.5617 24.4161 23.0615 24.7423 23.0065C25.1649 22.935 25.5859 22.8538 26.0085 22.7824ZM45.5241 19.3701C45.2076 19.2642 45.0718 19.7649 45.3866 19.8701C45.8215 20.0156 46.2529 20.1647 46.6655 20.3667C46.9635 20.5126 47.226 20.0655 46.9266 19.9189C46.4737 19.6972 46.0015 19.5298 45.5241 19.3701ZM25.9337 18.6981C25.6246 18.5741 25.4904 19.0755 25.7962 19.1982L26.9135 19.6461C27.2226 19.7701 27.3568 19.2688 27.051 19.1461L25.9337 18.6981ZM49.4253 17.4804L49.3846 17.4547C49.1044 17.2726 48.8448 17.7214 49.1234 17.9024C49.287 18.0087 49.4859 18.0807 49.6357 18.2073L49.667 18.2353C49.9089 18.4643 50.2754 18.0984 50.0328 17.8686C49.8553 17.7006 49.6306 17.6071 49.4253 17.4804Z" fill="black"/>
<path fill-rule="evenodd" clip-rule="evenodd" d="M41.2817 45.232C41.973 43.8491 48.3135 44.4707 48.3135 44.4707L48.849 48.8663C48.849 48.8663 45.7897 49.85 43.9687 49.6439C42.1476 49.4378 40.5904 46.6148 41.2817 45.232Z" fill="white"/>
<path fill-rule="evenodd" clip-rule="evenodd" d="M41.7289 47.5408C41.5099 47.072 46.0426 45.7937 47.446 46.6673C48.8494 47.5408 48.4106 48.7323 48.4106 48.7323C48.4106 48.7323 42.5079 50.0791 41.7289 47.5408Z" fill="#FF8181"/>
<path fill-rule="evenodd" clip-rule="evenodd" d="M40.8888 44.4136C41.9468 43.1838 43.7287 43.0981 45.2047 43.4056C46.1519 43.603 47.0742 43.9318 48.0363 44.0537C48.4856 44.1106 48.9398 44.1277 49.3924 44.1193C49.837 44.1111 50.2823 44.0214 50.7253 44.0381C50.7934 44.0406 50.8191 44.1301 50.7601 44.1665C50.1523 44.5399 49.3336 44.6597 48.6156 44.7327C48.6179 44.7859 48.6211 44.8378 48.6284 44.8817C48.648 44.999 48.6659 45.1155 48.6803 45.2336C48.7129 45.4999 48.7494 45.7653 48.7857 46.0311C48.8574 46.5541 48.88 47.0937 49.0061 47.6077L49.0281 47.6931C49.0573 47.8011 49.0639 47.8985 49.0542 47.9863L49.0834 47.9731L49.1756 47.9284L49.2361 47.8999C49.4567 47.7975 49.6673 47.723 49.9267 47.7479C50.1242 47.7667 50.29 47.9015 50.2912 48.1124C50.2961 49.0592 49.0206 49.3637 48.291 49.545L48.077 49.5977C47.1483 49.8243 46.2001 50.0229 45.245 50.0704C43.7122 50.1466 41.9897 49.7236 40.987 48.4798C40.0515 47.3194 39.88 45.5863 40.8888 44.4136ZM47.8495 48.3918C47.6886 46.9663 45.9376 46.8879 45.4338 47.7919C45.2103 46.5319 41.9035 47.683 42.1621 47.9335C43.1421 48.883 44.6294 48.9684 45.9079 48.7928C46.5591 48.7034 47.2108 48.5577 47.8495 48.3918ZM45.9063 44.6556L45.4661 44.5922L45.2927 44.5683C44.2013 44.4221 42.9739 44.3465 42.0766 45.0465C41.749 45.302 41.5647 45.6353 41.4958 45.9933C42.3449 45.8674 43.197 45.7713 44.0517 45.6914L44.2849 45.6699C44.8197 45.6217 45.3542 45.5709 45.8884 45.5176L46.2682 45.4791L46.6477 45.4397C46.7812 45.4257 47.6814 45.3796 47.8506 45.4106C47.8687 45.2584 47.8923 44.9292 47.9305 44.7812C47.291 44.8029 46.6542 44.7554 46.0185 44.6709L45.9063 44.6556ZM47.9329 38.284C48.5853 38.6807 49.5793 39.6057 48.8775 40.5892C48.0514 41.4564 46.862 40.4621 46.2758 40.0124C45.7323 39.6639 45.1217 40.5602 45.626 40.9672C49.8613 44.1041 51.5801 38.3877 48.2629 37.8175C47.8976 37.7547 47.762 38.1612 47.9329 38.284ZM49.1 39.9548L49.1311 39.9379L49.1416 39.9315C49.1598 39.9197 49.1483 39.921 49.1069 39.9353L49.0759 39.9465V39.9684C49.0838 39.9635 49.0923 39.9598 49.1 39.9548ZM40.7449 36.4307L40.7448 36.4112C40.746 35.8601 41.0669 34.6017 41.86 34.6017C42.3554 34.6017 42.6563 35.4581 42.7083 36.3409L42.7101 36.3769C42.7331 36.9258 42.5826 38.1255 41.86 38.1255C41.1297 38.1255 40.7524 36.9892 40.7449 36.4307ZM52.4217 36.2578L52.4218 36.2383C52.4206 35.6872 52.0997 34.4288 51.3066 34.4288C50.8235 34.4288 50.5255 35.243 50.4626 36.1019L50.4582 36.1681C50.427 36.6984 50.5678 37.9527 51.3066 37.9527C52.0368 37.9527 52.4142 36.8164 52.4217 36.2578ZM41.1975 30.844C41.8447 30.7456 42.7018 30.9326 43.0036 31.591C43.138 31.8844 42.9788 32.2087 42.6399 32.225C41.8208 32.2642 41.0862 32.0819 40.3672 32.6147C40.0578 32.844 39.7977 33.1616 39.5793 33.4783L39.4968 33.5989L39.4283 33.6982C39.2801 33.9162 39.1397 34.1531 39.1617 34.4161C39.1681 34.494 39.0886 34.5679 39.013 34.5648C38.5418 34.5454 38.4911 33.9544 38.553 33.5995C38.6683 32.9407 38.987 32.3223 39.4287 31.8242C39.8926 31.3012 40.5051 30.9494 41.1975 30.844ZM50.1125 31.6436C50.5588 31.3565 51.1297 31.2462 51.6526 31.2885C52.6835 31.3716 54.413 32.2483 54.1854 33.508C54.1152 33.8965 53.575 34.1015 53.2567 33.8859C52.9145 33.6542 52.8313 33.2941 52.5766 32.9912C52.3734 32.7493 52.1158 32.5743 51.84 32.4252C51.5682 32.2782 51.2538 32.189 50.9453 32.1566L50.8939 32.1517C50.7083 32.1359 49.7707 32.1401 49.9084 32.4902C49.9353 32.5587 49.8334 32.613 49.7865 32.5612C49.4991 32.2431 49.8246 31.8287 50.1125 31.6436Z" fill="black"/>
</g>
</svg>
