<svg width="76" height="76" viewBox="0 0 76 76" fill="none" xmlns="http://www.w3.org/2000/svg">
<circle cx="37.691" cy="37.691" r="37.691" fill="#C200AF"/>
<mask id="mask0" mask-type="alpha" maskUnits="userSpaceOnUse" x="0" y="0" width="76" height="76">
<circle cx="37.691" cy="37.691" r="37.691" fill="#C4C4C4"/>
</mask>
<g mask="url(#mask0)">
<path fill-rule="evenodd" clip-rule="evenodd" d="M62.7072 67.1653C61.4925 61.4086 57.1848 56.9415 51.3913 54.7162C50.2777 54.0861 49.1982 51.3824 47.7016 50.8873C47.4617 50.8079 47.8404 51.4396 47.7016 51.4773C47.2066 51.6119 46.652 51.6259 46.1055 51.14C45.1289 50.2716 44.8224 47.7344 44.2286 46.5877C41.0967 40.54 33.2772 42.9063 32.2296 49.5919C31.4991 50.0682 30.4665 50.4877 29.6714 50.8716C28.8526 51.2668 28.1324 52.224 27.2887 52.5663C26.5358 52.8716 25.2953 52.6553 24.5367 52.9215C21.0476 54.1459 18.0924 55.6909 15.7755 58.8212C15.2873 59.4815 14.737 60.2931 14.2928 60.9601C12.0024 63.5977 10.4116 66.554 8.94645 69.7258C4.84723 79.0356 3.73225 89.3436 2.7319 99.3743C2.75465 101.129 1.5905 105.996 3.31232 106.837C3.20941 106.944 3.24669 107.158 3.43762 107.157C7.80347 107.113 12.1592 107.503 16.4573 108.263C18.531 108.63 20.5937 109.133 22.706 109.215C27.091 109.185 31.4601 108.45 35.8393 109.146C41.1037 109.146 47.5016 108.992 53.3583 108.767C58.8319 108.556 64.3348 109.032 69.7406 108.101C70.1685 108.033 70.3774 107.511 70.2877 107.137C69.6535 104.825 69.3422 102.445 68.9863 100.079C69.0572 98.5614 68.9304 96.977 68.3691 95.5633C66.9027 86.02 65.0224 76.539 62.7072 67.1653Z" fill="#D08B5B"/>
<path fill-rule="evenodd" clip-rule="evenodd" d="M47.7016 51.5122C47.8404 51.4745 47.4617 50.8428 47.7016 50.9222C49.1982 51.4173 50.2777 54.121 51.3914 54.7511C57.1848 56.9764 61.4925 61.4435 62.7072 67.2002C65.0224 76.5739 66.9027 86.0549 68.3691 95.5982C68.9304 97.0118 69.0572 98.5963 68.9863 100.114L69.0422 100.488C69.3759 102.731 69.6869 104.981 70.2878 107.172C70.3774 107.546 70.1685 108.068 69.7406 108.136C64.3962 109.056 58.9569 108.602 53.5449 108.795L52.4169 108.837C46.8224 109.043 40.823 109.181 35.8393 109.181C31.4601 108.485 27.091 109.22 22.706 109.25C20.5937 109.168 18.531 108.665 16.4573 108.298C12.1592 107.538 7.80347 107.147 3.43762 107.192C3.24669 107.193 3.20941 106.979 3.31232 106.872C1.5905 106.031 2.75465 101.164 2.7319 99.4092L2.82232 98.5057C3.80183 88.7609 4.9702 78.7912 8.94645 69.7607L9.06553 69.504C10.4981 66.4294 12.0643 63.5613 14.2928 60.995L14.4291 60.7908C14.8465 60.1672 15.3362 59.4503 15.7755 58.8561C18.0924 55.7258 21.0476 54.1808 24.5367 52.9564C25.2954 52.6902 26.5358 52.9065 27.2887 52.6012C28.0779 52.2811 28.7589 51.423 29.5136 50.9899L29.5136 54.2201L40.4343 64.9819L46.6281 55.4809L47.258 51.5896C47.4098 51.5801 47.5582 51.5512 47.7016 51.5122Z" fill="#8FA7DF"/>
<path fill-rule="evenodd" clip-rule="evenodd" d="M60.941 79.7092C60.8255 80.2703 60.6636 80.8314 60.4484 81.3629C60.241 81.8758 59.9286 82.3354 59.7134 82.8422C59.6846 82.9105 59.6373 82.9621 59.5803 83.0015L59.5981 83.1394L59.6145 83.2773C59.7218 84.2077 59.8425 85.1355 59.947 86.0658L59.9978 86.5312C60.2034 88.4735 60.528 90.4064 60.78 92.3436C61.0268 94.2406 61.278 96.1375 61.5466 98.0319C61.8239 99.9848 62.1066 101.935 62.4365 103.88C62.5757 104.702 62.7211 105.523 62.8725 106.343L62.9895 106.97C64.1935 107.26 64.5226 108.939 63.2966 109.559C62.7402 109.839 62.0253 109.772 61.5667 109.331C61.0901 108.873 61.0703 108.045 60.9597 107.424L60.8532 106.846C60.0559 102.504 59.3639 98.1119 59.0404 93.7083C58.9573 92.5713 58.8873 91.4333 58.8418 90.2943C58.7986 89.2231 58.8192 88.1519 58.8027 87.0806L58.7972 86.7884C58.7719 85.6461 58.7928 84.5054 58.8226 83.363C58.8261 83.2239 58.8322 83.0847 58.8392 82.9446C58.799 82.8973 58.7701 82.8413 58.7579 82.787L58.7421 82.7153C58.7027 82.5306 58.7473 82.3143 58.8892 82.1822C58.9503 81.4039 59.0308 80.6266 59.0527 79.8493C59.0544 79.7854 59.1463 79.7872 59.1517 79.8493C59.2033 80.511 59.3065 81.1746 59.4097 81.8373C60.0739 81.3033 60.5648 80.4226 60.8544 79.6856C60.8754 79.6322 60.9534 79.6514 60.941 79.7092ZM45.2269 48.7713C45.3372 49.2755 45.5551 49.7282 45.8473 50.1492C45.9866 50.3506 46.1449 50.5379 46.3347 50.6946C46.4976 50.8285 46.6831 50.916 46.8563 51.0325C47.1083 50.993 47.3717 51.0885 47.5484 51.274L47.5205 51.0027C47.5117 50.9152 47.657 50.8977 47.6736 50.9825C48.4392 54.8449 49.1374 58.7097 49.7417 62.6L50.0066 64.318L50.2559 65.9308C50.6698 68.6184 51.0701 71.3049 51.3716 74.0121C51.7732 77.6249 52.1109 81.2473 52.3577 84.8748C52.6053 88.5278 52.7576 92.1833 52.8661 95.8434C52.8932 96.7661 52.9221 97.6879 52.9501 98.6104L53.137 97.5074C53.3235 96.4041 53.5064 95.2998 53.6632 94.1916C54.2259 90.2252 54.6757 86.2307 54.8953 82.2303C55.0966 78.5695 55.0292 74.836 54.0982 71.2695C53.8636 70.3723 53.5766 69.489 53.2302 68.6285C52.8941 67.7917 52.4356 67.0161 52.0741 66.1915C51.6541 65.2321 51.5281 64.327 51.7443 63.294C51.9333 62.3941 52.265 61.5476 52.3244 60.6215C52.4356 58.9022 51.8764 57.2371 51.0863 55.7324C50.878 55.3359 50.6583 54.9446 50.4291 54.5567C49.7352 53.3847 48.9529 52.2553 48.1409 51.1726C48.0972 51.1148 48.1898 51.0509 48.2372 51.0982C48.9774 51.83 49.7868 52.5495 50.4528 53.3488C50.7764 53.7374 51.0923 54.1339 51.3916 54.541C54.6748 55.0899 57.496 57.1356 59.4245 59.8371C61.613 62.9027 62.7199 66.5925 63.539 70.2261C64.4499 74.2643 65.2182 78.3392 66.0364 82.3974C66.8833 86.5967 67.726 90.796 68.5783 94.9943C69.0018 97.0785 69.4254 99.1629 69.848 101.248C70.0624 102.304 70.2873 103.357 70.5226 104.409C70.6435 104.948 70.773 105.487 70.885 106.028C71.0109 106.638 70.8937 107.028 70.4807 107.476C70.3284 107.643 70.0877 107.64 69.8987 107.552L69.8397 107.524L69.7825 107.496C69.5487 107.381 69.3653 107.262 69.2198 107.006C69.0596 106.725 69.0342 106.414 68.9792 106.101C68.8776 105.526 68.777 104.951 68.6755 104.375C68.5238 103.514 68.3589 102.655 68.1911 101.796L67.349 97.5045C67.1244 96.3603 66.8995 95.2162 66.6733 94.0725C65.8657 89.9827 65.0571 85.8938 64.2487 81.8049C63.4724 77.8787 62.7855 73.9256 61.9018 70.0221L61.8516 69.8022L61.8005 69.5826C61.0103 66.2176 59.9062 62.9626 57.9028 60.1111C56.361 57.9183 54.2198 55.96 51.6979 54.969C51.8756 55.2247 52.0462 55.4856 52.209 55.7517C53.231 57.4219 53.9774 59.4047 53.8023 61.3936C53.7167 62.3652 53.3474 63.3203 53.3823 64.2998C53.4147 65.17 53.9529 65.9342 54.3248 66.6913C55.1692 68.4071 55.78 70.2306 56.1738 72.1012C56.964 75.8574 56.9613 79.7223 56.6891 83.5354C56.3933 87.6805 55.8317 91.8245 55.192 95.9291C54.8639 98.0344 54.4272 100.122 54.0929 102.224C53.9276 103.26 53.7026 104.294 53.5057 105.326L53.4119 105.818C53.3593 106.092 53.3048 106.364 53.2419 106.634L53.203 106.795V106.824C53.2013 107.023 53.1469 107.188 53.0594 107.319C52.9396 107.703 52.7909 108.078 52.5931 108.438C52.4916 108.621 52.3445 108.725 52.1844 108.762C52.0234 109.131 51.6585 109.414 51.2228 109.413L45.4921 109.391C42.1634 109.378 38.8348 109.356 35.5061 109.337C34.6661 109.333 33.827 109.317 32.9878 109.295C32.2011 109.274 31.4469 109.179 30.6689 109.081C29.7903 108.971 29.3144 108.348 29.4456 107.47C29.4745 107.277 29.5059 107.084 29.5358 106.892C29.3608 106.949 29.1525 106.922 29.0116 106.785L28.8795 106.656C28.6964 106.474 28.5327 106.296 28.4166 106.055C28.2967 105.806 28.1995 105.544 28.0936 105.29C27.8652 104.743 27.6431 104.195 27.4268 103.645C26.9938 102.544 26.5606 101.438 26.158 100.325C25.3609 98.122 24.6556 95.8853 24.0423 93.6234C22.9485 89.5879 22.1573 85.4745 21.6586 81.3243L21.5393 80.3352L21.5046 80.043C21.3155 78.4344 21.1563 76.8009 21.2315 75.1957C21.278 74.1907 21.4337 73.178 21.8091 72.2395C22.1556 71.3738 22.6902 70.6332 23.1986 69.8594L23.2568 69.7701L23.3153 69.6786C23.7599 68.9757 24.1137 68.2409 24.1314 67.3873C24.1494 66.5211 23.8971 65.6781 23.6151 64.8672L23.5448 64.6672L23.4976 64.5348C22.8976 62.8588 22.2148 61.2065 22.44 59.3828C22.7726 56.6971 24.4001 54.5323 26.4477 52.8629C24.6267 53.2236 22.8242 53.9361 21.2334 54.8396C19.3546 55.9075 17.6631 57.3169 16.2044 58.9075C13.448 61.9134 11.4801 65.5201 9.8692 69.244C8.18291 73.1412 6.93248 77.2249 5.99014 81.3619C5.04247 85.5226 4.40807 89.7499 3.97483 93.9937C3.75879 96.106 3.58894 98.2235 3.44815 100.342C3.37639 101.427 3.32214 102.515 3.23814 103.598C3.15413 104.681 3.11642 105.781 2.85215 106.835C2.72877 107.326 1.89661 107.376 1.80744 106.835C1.60955 105.627 1.66486 104.377 1.72009 103.154L1.7251 103.043C1.77944 101.824 1.85032 100.606 1.93424 99.3887C2.10583 96.9 2.335 94.4148 2.63427 91.9375C3.68344 83.2414 5.61825 74.5908 9.41331 66.6529C11.2001 62.9141 13.4936 59.2812 16.684 56.5816C18.203 55.2973 19.9155 54.2722 21.7609 53.53C23.4114 52.8656 25.0879 52.5513 26.8415 52.5522C27.7209 51.8781 28.6651 51.2907 29.6083 50.7891C29.6652 50.7585 29.7247 50.832 29.6775 50.8793C29.653 50.9029 29.6293 50.9274 29.6049 50.9502C29.7117 50.9572 29.8218 51.0071 29.9207 51.1113C30.2673 51.4745 30.5596 51.9289 30.8211 52.4006C31.2193 52.8979 31.599 53.4117 31.9964 53.9037C32.6325 54.6915 33.2835 55.468 33.9425 56.2383C35.0492 57.533 36.1919 58.8031 37.3836 60.0221L37.5827 60.2248C38.2003 60.8508 38.8261 61.6001 39.5567 62.0955L39.5957 62.1215C39.9039 62.3224 40.1225 62.3589 40.3853 62.0588C40.6243 61.7857 40.8232 61.4688 41.0276 61.1677L41.0749 61.0985C42.1189 59.5815 43.0867 58.0084 43.9626 56.389C44.3618 55.652 44.7416 54.9043 45.102 54.1483L45.2095 53.9213C45.4055 53.5046 45.6182 53.0958 45.78 52.6668C45.8176 52.5662 45.8543 52.4655 45.8902 52.3657C45.3389 52.0042 44.912 51.2216 44.7571 50.6088C44.5961 49.9724 44.6775 49.3193 44.9644 48.7372C45.0187 48.6278 45.2007 48.6549 45.2269 48.7713ZM18.0316 74.6328C17.9553 77.0524 17.9091 79.4746 17.7952 81.8924L17.7559 82.7178C17.9335 82.9158 18.0376 83.1442 17.9545 83.4576C17.9222 83.5776 17.8267 83.6861 17.7077 83.7264L17.6706 84.4938C17.5017 87.9468 17.3038 91.3925 16.9421 94.8368C16.4897 99.1472 15.9664 103.45 15.4441 107.753C15.3697 108.362 14.9461 108.845 14.2872 108.756C13.6205 108.666 13.3501 108.086 13.4376 107.481C13.7815 105.108 14.1122 102.733 14.4019 100.352L14.7318 97.639C15.1454 94.248 15.5688 90.8575 16.0566 87.4773C16.2605 86.0645 16.4722 84.6525 16.6848 83.2405L16.6105 83.1442C16.3068 82.7495 15.9926 82.3634 15.682 81.9747C15.0853 81.2254 14.4964 80.4821 13.9495 79.6978C13.9223 79.6584 13.9775 79.6006 14.0168 79.6305C14.7833 80.1968 15.5088 80.8025 16.2386 81.418L16.8774 81.9589C17.2449 79.5192 17.6089 77.0786 17.9335 74.6328C17.9414 74.5716 18.0333 74.5671 18.0316 74.6328ZM29.058 51.4772C28.5967 51.9122 28.1252 52.3377 27.6604 52.7702L27.4902 52.9293L27.3208 53.0892C26.504 53.864 25.7215 54.6706 25.0695 55.5968C23.8725 57.2976 23.1593 59.3713 23.6571 61.4478C24.0702 63.1679 25.0179 64.727 25.2725 66.4901C25.4002 67.3733 25.3382 68.261 25.0055 69.0951C24.666 69.9461 24.1235 70.6753 23.6361 71.443C22.5773 73.1115 22.4329 74.9428 22.538 76.8756C22.6483 78.8943 22.8801 80.9137 23.1663 82.914C23.7455 86.967 24.6188 90.9781 25.7747 94.9059C26.3532 96.8729 27.0365 98.7979 27.7165 100.731C28.0551 101.693 28.4498 102.632 28.8566 103.567C29.071 104.059 29.2907 104.548 29.5139 105.037C29.4315 104.347 29.4315 103.639 29.3913 102.953C29.3335 101.971 29.26 100.991 29.1926 100.009C29.0553 98.0179 28.9328 96.0246 28.8234 94.0314C28.4358 86.9233 28.1505 79.809 28.1715 72.6895C28.182 69.1293 28.2547 65.5692 28.4078 62.0124C28.4796 60.3375 28.6186 58.6642 28.7443 56.9916L28.7709 56.6332C28.8821 55.1319 29.0151 53.6272 29.2434 52.139C29.1758 51.9864 29.1171 51.8319 29.0736 51.6734L29.058 51.6138L29.0693 51.6155C29.0588 51.569 29.0553 51.5227 29.058 51.4772ZM33.0465 45.36C33.056 45.3189 33.1147 45.3224 33.1252 45.36C33.3851 46.2354 33.2932 47.1983 33.0693 48.0789C32.9485 48.556 32.777 49.0191 32.5696 49.4656L32.497 49.6218C32.3193 50.002 32.1193 50.3938 31.7732 50.6307C31.6289 50.7296 31.3707 50.7357 31.2263 50.6307L31.1527 50.5748C31.1406 50.5653 31.1286 50.5557 31.117 50.5458C30.9823 50.4329 30.9157 50.1834 30.9778 50.0188C31.138 49.5942 31.5012 49.2826 31.7522 48.9044C31.9746 48.5683 32.1715 48.2138 32.335 47.8452C32.6877 47.0477 32.846 46.2012 33.0465 45.36Z" fill="black"/>
<path fill-rule="evenodd" clip-rule="evenodd" d="M40.7595 16.2478C53.9022 16.665 54.695 22.9232 54.695 33.4186C54.695 43.914 47.8771 50.5277 45.3666 51.6825C42.8562 52.8374 36.2458 57.7977 30.2804 55.5118C24.3149 53.226 26.0424 43.5684 26.0424 39.4189C26.0424 35.2694 27.6168 15.8307 40.7595 16.2478Z" fill="#D08B5B"/>
<path fill-rule="evenodd" clip-rule="evenodd" d="M28.0566 32.904C30.7741 21.7955 35.7349 16.3757 42.939 16.6447C53.7452 17.0481 53.6312 28.0899 52.9533 27.0831C52.5104 26.4253 49.4093 24.1275 43.6501 20.1897L43.2941 19.9466L28.0566 32.904Z" fill="#9FD8E5"/>
<path fill-rule="evenodd" clip-rule="evenodd" d="M46.0917 48.2356C43.6782 49.5863 40.9146 49.6389 38.3185 48.7889C36.7616 48.2803 35.334 47.4942 33.9979 46.554C32.8357 45.7355 31.7983 44.8277 30.7706 43.8639C29.9245 41.9932 29.171 40.1261 28.8181 38.0908C28.502 36.2639 28.4601 34.3669 28.8269 32.5435C31.5391 30.3069 34.2346 28.0519 36.9266 25.79C38.2975 24.6379 39.6719 23.4921 41.0629 22.3645C41.7694 21.792 42.4689 21.2108 43.1726 20.6356C43.2887 20.5411 43.4041 20.4465 43.5202 20.352C44.9731 21.4182 46.5309 22.3322 47.9735 23.4158C48.7287 23.984 49.4631 24.5889 50.1625 25.2252C50.5293 25.5588 50.8874 25.9028 51.2366 26.2556C51.5561 26.5778 51.8644 27.0399 52.3177 27.1617C52.3797 27.1782 52.4381 27.1817 52.4931 27.1739C53.0991 32.4927 53.5296 38.2361 50.9336 43.0665C49.801 45.1735 48.1953 47.0573 46.0917 48.2356ZM30.3909 50.1904C30.0585 49.8852 30.5538 49.3912 30.8847 49.6952C32.9635 51.604 35.681 52.6159 38.426 53.0842C38.8689 53.1599 38.68 53.8346 38.2403 53.7595C35.3744 53.2705 32.5576 52.1801 30.3909 50.1904ZM27.896 53.1192C27.4992 52.9058 27.8524 52.3015 28.2485 52.5145C29.868 53.3852 31.6443 53.8376 33.4461 54.1431C33.8892 54.2183 33.7002 54.8929 33.2604 54.8184C31.3975 54.5026 29.5694 54.0189 27.896 53.1192ZM34.4874 23.6164C35.8312 22.4074 37.2755 21.257 38.8011 20.2863C40.3448 19.3041 42.0309 18.7168 43.8533 18.7027C43.7258 18.8052 43.6044 18.919 43.4813 19.0248C43.1374 19.3199 42.7941 19.6166 42.4509 19.9125C41.7646 20.5052 41.0765 21.0968 40.3989 21.6992C39.0647 22.8862 37.7261 24.0671 36.3944 25.2567C33.8351 27.5433 31.3309 29.8796 28.8806 32.2835C28.8938 32.2248 28.9078 32.1662 28.9216 32.1076C29.7328 28.711 31.9394 25.9089 34.4874 23.6164ZM45.0217 18.8507C45.0304 18.8244 45.0366 18.799 45.0401 18.7745C48.5372 19.2315 51.4581 21.8112 52.4237 25.2077C52.3399 25.325 52.2936 25.4642 52.3111 25.6121C52.3198 25.6866 52.3285 25.7619 52.3373 25.8363C52.2176 25.7173 52.0945 25.606 51.9898 25.5001C51.6413 25.1465 51.2843 24.8024 50.9175 24.4671C50.1674 23.7817 49.3886 23.141 48.5677 22.5431C47.1401 21.5031 45.5945 20.5472 43.8926 20.0482C44.0044 19.9563 44.1162 19.8644 44.2289 19.7734C44.565 19.4993 44.8768 19.2735 45.0217 18.8507ZM51.2914 15.2187C49.1442 12.8666 46.1709 11.1438 43.0397 10.545C40.0498 9.97253 36.9543 10.3498 34.1296 11.4624C28.2188 13.791 23.5551 18.9112 21.3712 24.8444C20.0981 28.3013 19.6807 32.0909 20.0633 35.75C20.4439 39.3924 21.538 43.154 23.5289 46.2528C23.7114 46.5365 23.9114 46.8087 24.1209 47.0722C24.0275 48.1419 23.6712 49.1906 23.1106 50.1028C23.0805 50.1516 23.0487 50.1996 23.0173 50.2476C22.4433 50.6786 21.8478 51.083 21.2665 51.5005C20.7628 51.8622 20.2642 52.2333 19.7905 52.6339C19.3433 53.0122 18.824 53.4334 18.5213 53.9439C18.2732 54.3621 18.1719 54.9307 18.5106 55.3295C18.9186 55.8099 19.61 55.6405 20.1627 55.6405C20.2101 55.6405 20.2573 55.6416 20.3045 55.6421C20.4705 55.7467 20.6415 55.8413 20.8072 55.9292C22.4811 56.8187 24.1611 57.6985 25.8429 58.5739C29.1925 60.3185 32.5281 62.1333 35.9466 63.7395C37.5307 64.4844 39.2264 65.1356 41.0007 65.1331C42.6651 65.1305 44.1695 64.4678 45.4688 63.4602C46.9498 62.3125 48.188 60.8551 49.3895 59.4266C49.8697 58.8548 50.3404 58.2762 50.8023 57.6897C51.6895 57.393 52.5696 57.3063 53.3608 57.8788C53.9956 58.3384 54.8321 57.7134 54.8469 57.0235C54.8522 56.7785 54.8418 56.5368 54.8155 56.2987C54.6567 54.828 53.9388 53.4975 53.1302 52.2633C52.6885 51.5883 52.2231 50.9255 51.755 50.269C51.6449 50.1141 51.5367 49.9592 51.4319 49.8015C53.3119 47.0267 54.8033 43.9497 55.7201 40.7343C56.6833 37.351 57.0108 33.8425 56.796 30.3366C56.4658 24.9635 54.9955 19.277 51.2914 15.2187Z" fill="black"/>
<path fill-rule="evenodd" clip-rule="evenodd" d="M44.7716 44.4135C44.1834 44.1735 43.6586 43.773 43.2748 43.2615C43.1414 43.0837 43.1069 42.8959 43.1348 42.7241C43.1663 42.531 43.2805 42.356 43.4363 42.2386C43.5925 42.1208 43.788 42.0627 43.9769 42.0923C44.1411 42.1181 44.3045 42.208 44.4339 42.3945L44.4609 42.4318C44.689 42.7405 44.9863 42.9939 45.325 43.1571C45.6515 43.3145 46.0166 43.388 46.3944 43.3453C47.114 43.2639 47.61 42.8746 48.1372 42.3459C48.2026 42.2792 48.268 42.2103 48.3337 42.1404C48.3752 42.077 48.4328 42.0362 48.4967 42.0148C48.5677 41.9911 48.648 41.9924 48.7215 42.0181C48.7925 42.0429 48.8559 42.0898 48.8984 42.1523C48.9388 42.2116 48.9617 42.285 48.9543 42.3693C48.9061 42.9172 48.6197 43.4062 48.213 43.7902C47.7612 44.2166 47.1624 44.5116 46.5987 44.6151C45.9776 44.7291 45.3447 44.6474 44.7716 44.4135ZM46.8917 35.9609C47.5525 36.3627 48.5593 37.2996 47.8484 38.2958C47.0117 39.1741 45.807 38.167 45.2133 37.7116C44.6629 37.3586 44.0444 38.2664 44.5551 38.6786C48.8449 41.8558 50.5858 36.066 47.2259 35.4885C46.856 35.4248 46.7186 35.8366 46.8917 35.9609ZM39.2043 32.2649C39.2773 31.3584 40.6575 31.1525 40.7948 32.0496C40.9178 32.8532 40.773 33.5914 40.4112 34.3149C40.0655 35.0061 39.1965 34.6836 39.1308 34.0542C39.0427 33.2105 39.1589 32.8289 39.2043 32.2649ZM49.7105 31.8636C49.9029 31.6115 50.1807 31.4394 50.5136 31.5366C51.5536 31.8407 51.2471 33.3177 50.8818 34.0367C50.6834 34.4271 50.0419 34.5261 49.752 34.1823C49.2795 33.6217 49.0532 32.5022 49.6539 31.95C49.6702 31.9215 49.6883 31.8927 49.7105 31.8636ZM40.3966 28.2976L40.5609 28.2688C41.0691 28.1809 41.701 28.0964 42.0605 28.5051C42.2512 28.7219 42.3168 29.1247 42.0605 29.3322C41.6097 29.6972 41.1113 29.5558 40.571 29.5867C40.1258 29.6122 39.6979 29.6859 39.2691 29.8086C38.3282 30.0776 37.5616 30.5687 36.758 31.1079C36.6526 31.1786 36.545 31.0437 36.5953 30.9451C37.0591 30.0362 37.9581 29.2896 38.8585 28.8344C39.3391 28.5915 39.865 28.39 40.3966 28.2976ZM48.7624 27.8909L48.8881 27.9167C50.2564 28.2028 52.0342 28.7744 52.6822 30.1189C52.7069 30.309 52.6808 30.3498 52.6595 30.3764L52.6525 30.3853C52.635 30.408 52.6211 30.4393 52.5387 30.4652C52.5158 30.4598 52.4927 30.454 52.4694 30.4479C52.1724 30.37 51.9374 30.2627 51.7099 30.1514L51.4632 30.0298C51.177 29.8895 50.8883 29.7542 50.5823 29.6543C49.9294 29.4413 49.2577 29.2912 48.5757 29.211C48.4279 29.1937 48.2855 29.1438 48.1732 29.0582C48.0666 28.977 47.9852 28.8646 47.9481 28.7152C47.9 28.5218 47.9138 28.3754 48.0175 28.201C48.0955 28.0699 48.2071 27.9791 48.3352 27.927C48.4658 27.8738 48.6145 27.8613 48.7624 27.8909Z" fill="black"/>
</g>
</svg>
