<svg width="56" height="56" viewBox="0 0 56 56" fill="none" xmlns="http://www.w3.org/2000/svg">
<circle cx="28" cy="28" r="28" fill="#EC7495"/>
<mask id="mask0" mask-type="alpha" maskUnits="userSpaceOnUse" x="0" y="0" width="56" height="56">
<circle cx="28" cy="28" r="28" fill="#C4C4C4"/>
</mask>
<g mask="url(#mask0)">
<path fill-rule="evenodd" clip-rule="evenodd" d="M23.0982 39.7749L22.2606 41.8463L22.7221 48.4121L23.0655 48.4657C26.6921 49.0281 29.1565 49.3121 30.4586 49.3179L30.4989 49.318C31.8101 49.318 33.3814 49.025 35.2126 48.439L35.2961 48.4121L35.5074 43.4958H35.0089L34.1071 41.3808L34.1079 41.3801C34.1179 41.397 34.1282 41.4135 34.139 41.4294C34.5149 41.9857 34.7328 41.5364 35.6161 41.7332C36.6737 41.9688 37.1432 43.038 38.0743 43.8372C38.5066 44.2082 39.4139 44.3831 39.8481 44.6382L40.3042 44.9063C41.7333 45.7495 43.3759 46.7739 44.2384 48.1083C45.2494 49.6726 45.9463 51.1572 46.5898 52.8975C47.9769 56.6484 48.9397 60.476 49.6277 64.4124C50.325 68.4019 50.7441 72.441 51.0641 76.4769C51.2124 78.3472 51.3381 80.219 51.4425 82.0922L51.4681 82.5605C51.5229 83.5797 51.4753 84.577 50.549 85.2046C49.8853 85.6542 49.0044 85.7227 48.2258 85.7689L48.1834 85.7714C42.4264 86.1091 36.6692 86.4444 30.9121 86.7804L22.2766 87.2855C20.8397 87.3697 19.4028 87.4533 17.9659 87.5364L14.4585 87.7391C12.8055 87.8332 11.1504 87.9146 9.49514 87.905C7.41258 87.8928 5.33887 87.739 3.27551 87.4613L3.09348 87.4365C1.79535 87.2572 -0.0868827 86.8035 -0.320056 85.2461C-0.353533 85.0225 -0.15678 84.8827 0.0084132 84.9149C-0.0459438 84.6614 -0.0796944 84.4075 -0.111939 84.187C-0.250296 83.2446 -0.337171 82.2962 -0.380095 81.3448C-0.466218 79.441 -0.39365 77.5284 -0.203401 75.633C0.111339 72.4971 0.552538 69.3667 1.00842 66.2472L1.10993 65.5542C1.59483 62.2491 2.17215 58.9497 3.07554 55.7303C3.91007 52.7564 5.21195 49.6626 7.00332 47.782C8.79469 45.9015 11.3488 44.2677 13.9732 43.2669C14.2005 43.1802 18.7161 42.1912 19.0203 42.3352L19.0749 42.2924C19.9752 41.5814 21.2595 40.3324 22.5818 40.7257L22.5849 40.7208C22.616 40.6634 22.7382 40.2797 22.9069 39.775L23.0982 39.7749Z" fill="#8FA7DF"/>
<path fill-rule="evenodd" clip-rule="evenodd" d="M24.0533 37.0179C25.147 35.6308 26.2999 35.1899 28.0034 35.2932C29.1587 35.2519 30.3109 35.5519 31.2891 36.2145C32.1854 36.6831 32.9802 37.328 33.5475 38.1582C34.0327 38.868 33.6641 40.6219 34.1072 41.3808C34.1029 41.4634 34.1007 41.5387 34.1007 41.6067C34.1007 42.2634 34.5576 42.9962 35.4712 43.8052L35.5075 43.8372V48.6093C33.9714 49.0818 32.0696 49.318 29.802 49.318C27.5683 49.318 25.2449 48.9429 22.832 48.1925L22.7222 48.1581L22.2607 42.9717L22.7222 41.5364L22.7222 40.3344L22.9005 39.7967C23.2162 38.8513 23.6996 37.4666 24.0533 37.0179Z" fill="#D08B5B"/>
<path fill-rule="evenodd" clip-rule="evenodd" d="M22.7222 48.1582C22.7222 48.1582 26.7781 49.3397 29.5469 49.3397C32.3157 49.3397 35.2961 48.1582 35.2961 48.1582L34.8126 87.0524L27.0306 87.1476L22.7222 48.1582Z" fill="#9FD8E5"/>
<path fill-rule="evenodd" clip-rule="evenodd" d="M9.37093 65.1405C9.34094 65.0843 9.4105 65.0339 9.45664 65.0743C10.505 65.9947 11.0538 67.4727 11.1689 68.8388C11.2908 70.2875 11.118 71.7875 11.0519 73.2355C10.9784 74.8485 10.9123 76.4621 10.8225 78.0744C10.7314 79.7101 10.6333 81.3453 10.5491 82.9814L10.3598 86.6617C10.3397 87.0539 10.3833 87.5363 10.2328 87.9023C9.99966 88.4698 9.30704 88.3819 9.16148 87.9077L9.15693 87.8921L9.14364 87.9023C9.01521 87.4749 9.11133 86.9673 9.1331 86.5253L9.33143 82.5043C9.47154 79.6621 9.59651 76.8199 9.74702 73.9782L9.79819 73.031C9.86855 71.7559 9.9225 70.484 9.96582 69.2093L9.97988 68.7843C10.021 67.5044 9.98837 66.2961 9.37093 65.1405ZM34.7837 41.546C35.3677 41.4905 35.8088 41.6843 36.339 41.8884C36.57 41.9772 36.7887 42.0798 37.0103 42.1861C37.2877 42.3192 37.4661 42.5545 37.637 42.8033L37.7283 42.9373C38.4397 43.9799 38.9182 45.1828 39.4581 46.318C40.0898 47.6459 40.7277 48.9709 41.3458 50.3051L41.6508 50.9624C41.8033 51.2911 41.9554 51.62 42.1051 51.9499L42.3639 52.5241C42.6239 53.1064 42.857 53.7224 42.4865 54.3232C42.1419 54.8819 41.531 55.3142 41.0474 55.746C40.6439 56.1064 40.2403 56.4667 39.8366 56.827C40.671 57.6629 41.2313 58.7155 41.5605 59.8443C42.0284 59.6493 42.5994 59.6119 43.0832 59.5275C43.7603 59.4095 43.8433 60.435 43.2042 60.4224C42.7322 60.4132 42.1785 60.4614 41.6944 60.362C41.7785 60.7329 41.8396 61.1094 41.8784 61.487C42.0818 63.4659 41.6373 65.4564 41.1736 67.371L41.1355 67.5282C40.632 69.6006 40.1545 71.6785 39.7274 73.768C39.2993 75.8621 38.9142 77.965 38.5724 80.0748C38.2245 82.2224 37.9783 84.3817 37.7137 86.5406C37.6737 86.8674 37.4682 87.1474 37.1072 87.1474C36.8066 87.1474 36.4629 86.8667 36.5007 86.5406C36.7737 84.1896 37.1609 81.851 37.5456 79.516C38.2082 75.495 39.0421 71.5089 40.0014 67.5491L40.169 66.8595C40.6006 65.071 40.9922 63.2281 40.7757 61.3833C40.5994 59.8811 39.9715 58.2794 38.7306 57.3464L38.6928 57.3183C38.403 57.1056 38.2915 56.699 38.5769 56.4189C38.7586 56.2407 38.9405 56.0627 39.1225 55.8848L40.2148 54.8179L40.4351 54.6024C40.6187 54.4231 40.8032 54.2448 40.9932 54.072C41.1082 53.9675 41.4201 53.7682 41.4429 53.5963C41.4577 53.4841 41.3249 53.2871 41.2711 53.1837L41.0245 52.6859C40.8845 52.402 40.7488 52.1161 40.6121 51.8305C40.3288 51.2391 40.0414 50.6494 39.7643 50.055L38.0993 46.4861C37.6296 45.4792 37.2112 44.4162 36.5971 43.4853L36.476 43.3039C36.3749 43.1511 36.2857 43.004 36.2218 42.8172C36.1604 42.6374 36.0833 42.44 35.9698 42.2866C35.7038 41.9266 35.1954 41.7223 34.7701 41.6469C34.7086 41.636 34.7309 41.5511 34.7837 41.546ZM21.978 40.6086C22.015 40.6086 22.0206 40.6614 21.9865 40.6717C21.4733 40.8261 20.983 41.0751 20.5829 41.4347C20.3915 41.6067 20.1987 41.802 20.0806 42.0336C20.0354 42.1222 20.0103 42.2159 19.992 42.313L19.9861 42.3454C19.9556 42.5208 19.912 42.6184 19.8229 42.7588L19.8076 42.7827C19.2992 43.5681 18.9429 44.4406 18.6171 45.3141L17.9075 47.2188L17.1985 49.1237C16.9701 49.7375 16.7415 50.3514 16.5129 50.9651C16.3867 51.304 16.2569 51.6414 16.1272 51.9789C16.071 52.1252 16.0107 52.2703 15.9593 52.4183C15.9523 52.4385 15.9298 52.5603 15.913 52.5899L15.9187 52.6C16.0617 52.8406 16.4431 53.0417 16.6593 53.2166L17.4037 53.8186C17.9345 54.248 18.4789 54.6653 18.9937 55.1138C19.3171 55.3954 19.1159 55.8997 18.7553 56.0173C18.1509 56.2143 17.5588 56.45 16.9635 56.6729C16.723 56.7629 16.4726 56.8412 16.2349 56.9404L16.0902 57.003C16.0337 57.0284 16.0609 57.0282 16.0632 57.1325C16.0654 57.2419 16.0964 57.356 16.1142 57.4635C16.3148 58.6764 16.5273 59.8872 16.7517 61.0959C17.5453 65.3702 18.4934 69.6133 19.5747 73.8238C20.1208 75.9501 20.7066 78.0659 21.2647 80.1891C21.8215 82.3065 22.5541 84.3937 23.2536 86.4675C23.451 87.0523 22.524 87.3041 22.3315 86.7218C21.5253 84.2827 20.7878 81.8223 20.0262 79.3694C18.673 75.0109 17.6067 70.5578 16.6636 66.0939C16.1961 63.8815 15.7686 61.6607 15.3814 59.4328C15.3081 59.011 15.2362 58.589 15.1657 58.1668L15.0631 57.5456C14.9928 57.1029 14.9527 56.6418 15.2967 56.2914C15.6326 55.9494 16.2092 55.8283 16.6512 55.6679L16.6833 55.656C16.9645 55.5511 17.2478 55.4499 17.53 55.3456C17.1143 55.0182 16.7037 54.6836 16.2891 54.3565C15.9546 54.0925 15.6148 53.8339 15.2851 53.5639C15.0133 53.3412 14.7916 53.0553 14.7633 52.6931C14.7343 52.323 14.8929 51.9795 15.0208 51.64L15.0331 51.6072C15.1586 51.2683 15.2845 50.9295 15.4136 50.5919L16.2125 48.5017C16.7202 47.1736 17.2065 45.8347 17.7405 44.5169C17.9518 43.9953 18.182 43.482 18.4541 42.9891C18.5852 42.7514 18.7259 42.5187 18.8788 42.2943C19.0501 42.0427 19.2055 41.9201 19.471 41.7812C19.8953 41.5593 20.2284 41.1871 20.6546 40.9583C21.0728 40.7337 21.5032 40.6138 21.978 40.6086ZM23.3557 38.2391C23.3719 38.2112 23.4149 38.2236 23.4154 38.2553C23.4265 38.9154 23.2698 39.5899 23.1733 40.2426C23.0764 40.8976 23.0453 41.589 22.9052 42.237C22.9023 42.2672 22.8965 42.2969 22.8882 42.3262L22.8815 42.3484C22.8224 42.5299 22.6685 42.6838 22.4798 42.7319C22.5392 43.0609 22.5951 43.3905 22.6421 43.7218C22.7229 44.2913 22.7966 44.8617 22.8691 45.4322L22.9559 46.1169C23.0379 46.7622 23.1176 47.4077 23.1964 48.0534C23.3967 48.1372 23.6012 48.2064 23.8107 48.2663C24.293 48.4044 24.787 48.4605 25.2847 48.5093C26.2982 48.6088 27.3196 48.6549 28.3367 48.7113L28.5546 48.7236C29.6982 48.7892 30.848 48.8008 31.9886 48.6834C32.5543 48.6252 33.1154 48.5276 33.667 48.3891C33.9473 48.3188 34.2197 48.2138 34.4994 48.145C34.5922 48.1222 34.6751 48.0696 34.768 48.0134C34.8093 47.9612 34.8672 47.9217 34.9427 47.9065L34.9631 47.9029L34.9833 47.8999L34.9903 47.8968L34.9898 47.899C35.047 47.8912 35.1014 47.8913 35.1526 47.8983C35.173 47.3949 35.1952 46.8916 35.2229 46.3883C35.2973 45.0367 35.5027 43.6267 35.2285 42.2868C35.2193 42.2417 35.2806 42.2258 35.2965 42.268C35.8347 43.6865 35.7743 45.2375 35.8014 46.7303C35.8279 48.1903 35.8118 49.6512 35.8046 51.1115C35.9091 51.156 36.0024 51.2163 36.0762 51.301C36.2238 51.4701 36.2662 51.7642 36.0762 51.9275C35.992 51.9999 35.8988 52.0502 35.8 52.085C35.7947 53.3536 35.7858 54.6223 35.773 55.8909C36.0142 56.0773 36.0367 56.5198 35.7639 56.7037C35.7185 60.812 35.6439 64.9205 35.582 69.0283L35.4524 77.6465C35.4351 78.7947 35.4065 79.9429 35.3962 81.091L35.4044 81.0942L35.4331 81.1075C35.4814 81.1302 35.5533 81.1669 35.5682 81.2045C35.5721 81.2144 35.5731 81.2211 35.5726 81.2261C35.6518 81.2372 35.7302 81.2746 35.798 81.339C35.9655 81.4982 35.9314 81.7381 35.798 81.9002L35.7623 81.9435C35.6792 82.0446 35.5212 82.0835 35.3923 82.0629C35.3936 82.7795 35.3981 83.4962 35.3959 84.2128C35.3951 84.4316 35.3918 84.6505 35.3881 84.8694L35.379 85.3942C35.373 85.6937 35.3465 86.0743 35.0399 86.2088C34.694 86.3606 34.3838 86.2363 34.2437 85.8848C34.2058 85.7896 34.2139 85.7009 34.2277 85.6068C34.2234 85.4654 34.2013 85.3015 34.2041 85.1703L34.2155 84.6231C34.2173 84.5388 34.2207 84.4544 34.2231 84.3701L34.2131 84.3711C32.9839 84.4308 31.7462 84.4017 30.515 84.4009L29.9674 84.4017C29.5106 84.4021 29.0527 84.3997 28.5965 84.3822L28.4255 84.3749C28.084 84.3589 27.7248 84.3538 27.3707 84.3232C27.4158 84.6868 27.458 85.0507 27.4956 85.4149C27.5312 85.7603 27.1748 86.0537 26.857 86.0537C26.4795 86.0537 26.2636 85.7569 26.2184 85.4149C26.0051 83.8016 25.9178 82.1733 25.714 80.559C25.5314 79.1131 25.3731 77.6639 25.2122 76.2153L25.1585 75.7324C24.5697 70.4606 23.9981 65.1868 23.4513 59.9104L23.1967 57.4439C22.9396 54.9578 22.681 52.4716 22.4629 49.9819C22.3382 48.5585 22.2232 47.1348 22.115 45.71C22.0357 44.6633 21.9859 43.6224 21.9534 42.5777C21.8255 42.446 21.7613 42.2537 21.818 42.055C21.8511 41.9392 21.8897 41.8239 21.9303 41.7088C21.9278 41.5958 21.9251 41.4828 21.9229 41.3696C21.9209 41.2624 22.0296 41.2073 22.1166 41.2251C22.2748 40.842 22.4489 40.4623 22.5943 40.0829C22.8295 39.4689 23.0234 38.8072 23.3557 38.2391ZM10.2187 44.8754C12.6777 43.3338 15.6048 42.2244 18.5364 42.3439C18.6031 42.3466 18.6219 42.4483 18.5526 42.4637C16.9889 42.8129 15.4079 43.2384 13.9275 43.8576C12.4428 44.4786 11.031 45.3148 9.77358 46.3197C7.45362 48.1738 5.65039 50.5854 4.46303 53.3038C3.76755 54.8963 3.28005 56.5775 2.85436 58.2593C2.4039 60.0392 2.03264 61.8383 1.72396 63.6482C1.11426 67.2232 0.759292 70.8377 0.570412 74.4583C0.378246 78.1414 0.457453 81.8271 0.320397 85.5107C0.29671 86.1489 -0.615172 86.1364 -0.66152 85.5107C-0.972053 81.3227 -0.800014 77.0678 -0.512825 72.8827C-0.254595 69.1205 0.196348 65.3662 0.9225 61.6645L0.985752 61.3436C1.66459 57.9189 2.48339 54.4111 4.1245 51.3096C5.52559 48.6617 7.68864 46.4617 10.2187 44.8754ZM44.3656 61.2436C44.3784 61.2069 44.4269 61.2073 44.4398 61.2436C44.7202 62.0286 44.7302 62.9143 44.8048 63.7418L44.8106 63.8054C44.8821 64.5601 44.9359 65.3158 44.9859 66.0721L45.0045 66.3557C45.2053 69.441 45.4563 72.5229 45.8345 75.592C46.2114 78.6495 46.7209 81.6857 47.2719 84.7159C47.3334 85.0533 47.184 85.3969 46.8303 85.4941C46.5185 85.5798 46.1183 85.3877 46.0524 85.0523C45.7103 83.313 45.4337 81.5714 45.1869 79.8171C44.7524 76.7279 44.4282 73.6244 44.2197 70.5117C44.1151 68.9484 44.0507 67.3856 44.0251 65.8189C44.0133 65.0921 44.0322 64.3634 44.0709 63.6372L44.0802 63.4697C44.1229 62.7275 44.1185 61.9514 44.3656 61.2436ZM17.7946 80.8952C17.8274 80.8774 17.8681 80.914 17.8473 80.9479C17.3711 81.722 16.727 82.3895 16.1044 83.0474C15.4536 83.7351 14.8188 84.4435 14.1548 85.1177C13.6751 85.6047 12.9033 84.8191 13.4097 84.3722C14.1216 83.744 14.8657 83.1471 15.5902 82.5329L15.9071 82.2642C16.5012 81.7621 17.1129 81.2646 17.7946 80.8952ZM40.4096 80.5075C40.3741 80.4398 40.4553 80.3849 40.5105 80.4297C40.8945 80.7422 41.2387 81.1149 41.6096 81.4445C41.9769 81.7712 42.3579 82.0758 42.7492 82.3729C43.1423 82.6712 43.5439 82.9576 43.9563 83.2286C44.2983 83.4534 44.6509 83.6334 45.0092 83.8201C45.175 83.8414 45.3287 83.9229 45.4516 84.0773C45.646 84.3215 45.6667 84.782 45.3971 84.9941L45.3487 85.0321C45.0339 85.2795 44.6604 85.3096 44.3506 85.0321C44.0047 84.7222 43.6777 84.3812 43.3455 84.0537L43.2457 83.9559C42.8888 83.6089 42.5405 83.2505 42.2122 82.8761L41.9149 82.5379C41.3635 81.9088 40.7896 81.2309 40.4096 80.5075ZM38.6405 44.2417C38.5766 44.1993 38.616 44.0854 38.6949 44.1126L38.8395 44.1626C39.4439 44.3727 40.0659 44.6057 40.6146 44.9291C41.2043 45.2767 41.7487 45.6908 42.2689 46.135C43.3455 47.0544 44.2615 48.185 45.04 49.3635C46.602 51.7283 47.5679 54.4365 48.3478 57.1463C49.1794 60.0356 49.8196 62.9871 50.3424 65.9469C50.8736 68.9549 51.2834 71.9901 51.5527 75.0328C51.6854 76.5317 51.7744 78.0315 51.8192 79.5356C51.8423 80.3094 51.8415 81.0826 51.8351 81.8566C51.8334 82.0557 51.8348 82.2546 51.837 82.4536L51.8446 83.0505C51.8486 83.428 51.8938 83.8246 51.8041 84.1933C51.6598 84.7869 50.6788 84.6761 50.711 84.0695C50.6815 83.8677 50.6803 83.659 50.688 83.45C50.6833 83.423 50.6783 83.3957 50.6726 83.3676C50.6566 83.2874 50.6702 83.2132 50.7017 83.1494C50.7068 83.0491 50.7114 82.9495 50.713 82.8515C50.7195 82.453 50.7191 82.0561 50.708 81.6577C50.6848 80.8176 50.6514 79.9776 50.6177 79.1379C50.5502 77.46 50.4564 75.7813 50.3205 74.1075C49.8474 68.2814 48.8485 62.422 47.1707 56.8169C46.3914 54.214 45.317 51.6588 43.7764 49.4096C43.0924 48.4111 42.3208 47.4887 41.4654 46.6327C40.6046 45.7714 39.656 44.9145 38.6405 44.2417ZM27.0307 81.7997L27.147 82.641C27.2051 83.0617 27.2626 83.4826 27.3173 83.9038C27.6884 83.8529 28.0681 83.8316 28.4257 83.7999C29.0518 83.7445 29.6821 83.7176 30.3101 83.6917C31.6085 83.6381 32.9135 83.5452 34.2133 83.5517C34.2266 83.5517 34.2392 83.5526 34.2518 83.5537L34.3163 81.8936L33.4031 81.8922C32.6293 81.891 31.8557 81.8844 31.082 81.8777C30.3852 81.8717 29.6881 81.8708 28.9913 81.8563L28.6928 81.8492C28.1644 81.8349 27.581 81.8643 27.0307 81.7997ZM34.3928 79.39C34.3556 79.3944 34.3176 79.3981 34.2773 79.3998C34.0964 79.4074 33.9141 79.4021 33.7331 79.4037C33.3477 79.407 32.9623 79.4096 32.5768 79.4095C31.806 79.4095 31.0352 79.4141 30.2645 79.4234C29.471 79.433 28.6781 79.4468 27.8846 79.4484C27.5001 79.4491 27.1169 79.4389 26.7326 79.4281C26.7947 79.9745 26.8597 80.5205 26.9314 81.0651C27.5283 80.9845 28.1702 81.0251 28.7535 81.0196L28.8292 81.0185C29.6253 81.0049 30.4221 81.015 31.2185 81.0159C32.0376 81.0169 32.8568 81.0196 33.676 81.0263L34.3491 81.0318L34.3504 80.9979C34.3701 80.4625 34.3828 79.9264 34.3928 79.39ZM26.4365 76.7762C26.5111 77.4211 26.5812 78.0671 26.6526 78.713C26.7 78.7056 26.7481 78.6993 26.797 78.6942C27.1821 78.6539 27.5662 78.6194 27.9526 78.5954C28.7229 78.5477 29.493 78.5225 30.2645 78.5018C31.0578 78.4805 31.8513 78.4642 32.6449 78.453C33.0304 78.4476 33.4156 78.4481 33.8012 78.4508C33.9821 78.452 34.1648 78.4463 34.3453 78.4585C34.3668 78.4599 34.3874 78.4622 34.4078 78.4645L34.4214 77.4949C34.4237 77.3333 34.4262 77.1717 34.4288 77.0102C33.8329 77.0469 33.2271 77.0329 32.6316 77.0331L32.4944 77.0334C31.7462 77.0368 30.9977 77.0265 30.2497 77.011C29.4779 76.9949 28.7077 76.9697 27.9374 76.9203C27.6252 76.9003 27.3154 76.8737 27.005 76.8395L26.8497 76.8217C26.7147 76.8057 26.5756 76.7929 26.4365 76.7762ZM34.4902 74.0399C33.0551 74.1538 31.6276 74.2014 30.1887 74.2156L29.9727 74.2175C28.7012 74.2271 27.4191 74.2796 26.1445 74.2459C26.2207 74.9068 26.2967 75.5678 26.3733 76.2286C26.5558 76.2201 26.7392 76.2201 26.9177 76.2136C27.2806 76.2005 27.6422 76.1973 28.0053 76.1964C28.7534 76.1947 29.5015 76.2012 30.2496 76.1997C31.0206 76.1981 31.7914 76.1851 32.5623 76.1705C33.1872 76.1588 33.8189 76.1118 34.4455 76.1135L34.4902 74.0399ZM34.5509 71.22C34.3846 71.2752 34.1883 71.2788 33.973 71.2887L33.4175 71.3163C33.16 71.329 32.9024 71.3408 32.6448 71.3502C31.7862 71.3817 30.9277 71.4111 30.069 71.4384C29.1891 71.4663 28.3049 71.4826 27.4249 71.4548C26.9938 71.4412 26.5663 71.4186 26.1365 71.3826C26.0303 71.3737 25.922 71.3679 25.8135 71.3602C25.9135 72.236 26.0139 73.1116 26.1147 73.9872C27.3832 73.8314 28.6614 73.7344 29.9284 73.5734L31.0739 73.427C32.2189 73.2809 33.363 73.1374 34.5122 73.0165L34.5509 71.22ZM34.6121 68.369C34.3681 68.4293 34.0901 68.4263 33.8557 68.4411L33.8123 68.4441C33.3684 68.4778 32.9232 68.4946 32.4783 68.5056C31.6061 68.5271 30.7334 68.5378 29.8609 68.5432L29.3363 68.5464C28.6369 68.5505 27.9379 68.5523 27.2383 68.536C26.7895 68.5256 26.3418 68.5036 25.8934 68.4811C25.7591 68.4743 25.6218 68.4699 25.484 68.463C25.5777 69.2921 25.6724 70.1209 25.7669 70.9499C25.9142 70.9265 26.0622 70.9087 26.2033 70.8848C26.5647 70.8237 26.9254 70.775 27.2894 70.7314C28.0778 70.6368 28.8703 70.5688 29.6624 70.5115C30.4755 70.4525 31.2894 70.4026 32.1027 70.3456L32.6787 70.305C32.8707 70.2916 33.0627 70.2787 33.2548 70.267C33.5829 70.2468 33.9642 70.2696 34.2896 70.1981C34.3777 70.1614 34.4755 70.153 34.5735 70.174L34.6121 68.369ZM34.686 65.0319C34.6016 65.1392 34.4755 65.1954 34.3251 65.2149C33.542 65.3165 32.7387 65.3328 31.949 65.3807L31.8098 65.3895C30.9944 65.4433 30.1785 65.4855 29.3624 65.5288C28.5241 65.5733 27.686 65.6096 26.847 65.6389C26.4908 65.6513 26.1329 65.6527 25.7761 65.6482L25.6234 65.6459C25.4769 65.6434 25.3234 65.6437 25.1697 65.6387C25.2548 66.414 25.3407 67.1892 25.4278 67.9642C25.5846 67.9471 25.7413 67.9341 25.8934 67.918C26.3415 67.8706 26.7891 67.8238 27.2382 67.7884C28.0893 67.7213 28.941 67.6809 29.7937 67.6387C30.6661 67.5955 31.5389 67.5668 32.4115 67.526C32.8345 67.5062 33.2574 67.4816 33.6791 67.4427C33.9747 67.4155 34.3259 67.3149 34.6343 67.3519C34.6511 66.5785 34.6686 65.8052 34.686 65.0319ZM34.7547 62.0424C34.7414 62.0631 34.7257 62.0831 34.7068 62.1017C34.362 62.4425 33.9371 62.4162 33.4802 62.452L33.4522 62.4542C33.0044 62.4919 32.5564 62.5277 32.1081 62.56C31.2121 62.6248 30.3142 62.67 29.4168 62.7104C28.4984 62.7517 27.5742 62.7801 26.6549 62.7613C26.0662 62.7493 25.4497 62.7514 24.8492 62.694C24.9414 63.5478 25.0342 64.4016 25.1276 65.2553C25.2965 65.2234 25.4664 65.199 25.6273 65.1737C26.0329 65.1099 26.439 65.0457 26.8469 64.9987C27.6621 64.9048 28.4776 64.817 29.2944 64.7378C29.9929 64.67 30.6912 64.6012 31.3902 64.5393L31.8097 64.5031C32.6438 64.4329 33.4883 64.3171 34.3251 64.3C34.4629 64.2972 34.6189 64.3723 34.6979 64.4907C34.7164 63.6746 34.7355 62.8585 34.7547 62.0424ZM34.8126 59.6223C34.5996 59.6482 34.3702 59.6335 34.1736 59.6399C33.6767 59.6562 33.1797 59.6712 32.6826 59.6859L29.7005 59.774C28.6851 59.8039 27.6663 59.8263 26.6505 59.812C26.2037 59.8057 25.7549 59.8049 25.3083 59.7806L25.1595 59.7716C24.9757 59.7594 24.7501 59.7577 24.5298 59.7353L24.7899 62.1451C25.3874 62.0587 26.0032 62.0264 26.5957 61.9758L26.7223 61.9646C27.5961 61.885 28.4741 61.8323 29.3495 61.773C30.2475 61.7122 31.1441 61.6384 32.0409 61.5628C32.4891 61.5252 32.9372 61.4876 33.3851 61.4463L33.4404 61.4409C33.8635 61.3967 34.2613 61.3027 34.636 61.5522C34.6908 61.5886 34.7338 61.6374 34.7631 61.692C34.7795 61.0021 34.7955 60.3122 34.8126 59.6223ZM34.8822 56.8098C33.066 56.883 31.2496 56.9384 29.4321 56.9628C28.409 56.9765 27.3872 56.9669 26.3643 56.9455C25.9208 56.9362 25.4735 56.915 25.0303 56.881L24.8643 56.8676C24.6536 56.8499 24.4322 56.837 24.2117 56.8158C24.3029 57.6443 24.3932 58.473 24.4829 59.3019C24.6997 59.2615 24.9264 59.2429 25.1164 59.2186L25.1596 59.2129C25.6317 59.1479 26.1083 59.11 26.5828 59.0682C27.5068 58.9868 28.4353 58.9344 29.3617 58.8898C30.3103 58.8441 31.2594 58.8054 32.2082 58.7632L33.1571 58.7207C33.3152 58.7137 33.4734 58.7068 33.6315 58.7001C33.8575 58.6906 34.0834 58.6815 34.3093 58.6721C34.4208 58.6675 34.5366 58.6524 34.6482 58.6581L34.68 58.6539C34.6946 58.652 34.7075 58.6505 34.7194 58.6492C34.7498 58.6261 34.7824 58.607 34.817 58.5924L34.838 58.5842L34.8822 56.8098ZM23.9139 54.1448C23.9982 54.8906 24.0816 55.6367 24.1639 56.3829C24.4229 56.3533 24.6851 56.3369 24.9324 56.3147C25.4311 56.27 25.9322 56.2308 26.4324 56.2078L27.4322 56.1613C28.0986 56.1305 28.7651 56.1007 29.432 56.0763C31.2573 56.0097 33.0825 55.9333 34.9067 55.8401C34.9195 55.3341 34.9328 54.828 34.9464 54.322C34.8588 54.4158 34.7323 54.4775 34.5661 54.4771C32.651 54.472 30.7344 54.4831 28.8195 54.4516C27.861 54.4358 26.9036 54.4125 25.9462 54.3634C25.4777 54.3393 25.0066 54.2903 24.5417 54.2258C24.3434 54.1984 24.1265 54.1788 23.9139 54.1448ZM23.6075 51.4868C23.6975 52.2508 23.7858 53.0151 23.8727 53.7796C24.1105 53.7371 24.3562 53.7145 24.5781 53.6843C25.0549 53.6194 25.5346 53.5678 26.0147 53.5407C26.9491 53.4878 27.884 53.4612 28.8196 53.4413C30.7344 53.4006 32.651 53.4009 34.5662 53.3858C34.7461 53.3843 34.8797 53.4555 34.9674 53.5618C34.9806 53.0847 34.9947 52.6075 35.0091 52.1303C34.8241 52.1108 34.6407 52.0831 34.471 52.0713C33.9494 52.0349 33.4276 52.0016 32.9056 51.9716C31.8163 51.9091 30.7259 51.8558 29.6359 51.8083C28.5455 51.7608 27.4548 51.7145 26.3641 51.6741L25.8871 51.6566C25.1286 51.6284 24.3572 51.5928 23.6075 51.4868ZM23.2645 48.6092C23.3582 49.3831 23.4505 50.157 23.5425 50.9311L23.5705 51.1707C24.4828 50.9933 25.4441 50.9413 26.364 50.9022C27.4549 50.8558 28.5439 50.8319 29.6358 50.8353C30.7265 50.8385 31.8157 50.8644 32.9056 50.9094C33.4501 50.9319 33.9947 50.9579 34.5389 50.9875C34.6886 50.9956 34.864 50.9913 35.0446 50.9939C35.0485 50.8722 35.0519 50.7506 35.0561 50.629C35.0726 50.1363 35.0889 49.6437 35.1058 49.151C34.7377 49.3402 34.259 49.4165 33.8891 49.4971L33.8469 49.5064C33.236 49.6437 32.6123 49.7326 31.9887 49.787C30.7643 49.8938 29.5271 49.8539 28.3038 49.7504L28.0895 49.7321C27.0152 49.6389 25.9016 49.5208 24.8602 49.2549C24.3641 49.1282 23.8513 48.951 23.4068 48.6941C23.3606 48.6674 23.3129 48.6391 23.2645 48.6092ZM33.608 39.4131C33.6186 39.3713 33.6812 39.3618 33.7018 39.4009C33.8465 39.6758 33.9003 40.0057 34.0007 40.3003C34.1088 40.617 34.2096 40.936 34.3289 41.2488C34.578 41.9025 34.8719 42.5306 35.2223 43.1361C35.5693 43.7356 34.5977 44.1636 34.3423 43.5072C34.0787 42.8299 33.862 42.1295 33.7309 41.4138C33.6669 41.0645 33.6099 40.7105 33.5914 40.3557C33.5754 40.0509 33.5326 39.7104 33.608 39.4131Z" fill="black"/>
<path fill-rule="evenodd" clip-rule="evenodd" d="M41.4463 16.5715C41.4234 15.7526 40.2352 15.4125 39.8919 16.2236C39.8706 16.2453 39.8474 16.2662 39.8257 16.2849C39.9332 16.1925 39.7085 16.3454 39.6719 16.3643C39.6406 16.3805 39.6087 16.3951 39.5768 16.4101C39.356 14.3354 38.6064 12.0988 36.6695 11.0574C33.9681 9.74406 30.8466 9.48771 27.8828 9.61818C26.3815 9.70749 24.6478 9.94815 23.3139 9.18672C22.8983 8.94948 22.5651 8.57602 22.0954 8.42939C20.6128 8.02731 19.9403 9.5536 20.1422 10.8087C19.5098 10.8137 18.8825 11.1647 18.6096 11.7426C18.4493 12.0847 18.4521 12.4537 18.3139 12.797C17.8899 13.6674 17.2832 14.2931 17.6262 15.3485C17.0229 16.0367 17.3669 17.0786 17.8537 17.7375C18.0941 18.0802 18.3804 18.4092 18.5565 18.7928C18.7274 19.1601 18.4694 19.5957 18.3258 19.9439C17.2642 22.4675 17.3249 25.2468 17.8961 27.8791C16.7498 28.3778 16.4057 29.9365 17.1532 30.918C17.4105 31.265 17.7242 31.3937 18.0801 31.6072C18.5304 31.8557 18.1626 32.8509 18.3068 33.3315C18.5027 34.5049 19.5685 35.2275 20.6222 34.4655C21.2909 34.3641 21.8302 36.3145 22.3158 36.8041C22.615 37.1986 22.9471 37.5528 23.3082 37.8797C24.3842 40.6551 29.8977 42.0625 32.6236 41.9018C35.4781 41.6022 37.4039 39.1719 39.0074 37.0149C39.8308 35.8657 40.3663 34.5794 40.561 33.1764C40.7567 31.7664 40.6711 30.3539 40.5388 28.9422C40.261 25.9427 39.8227 21.6215 39.5397 18.5897C40.5625 18.5053 41.4774 17.6323 41.4463 16.5715Z" fill="#D08B5B"/>
<path fill-rule="evenodd" clip-rule="evenodd" d="M21.0549 8.82885C21.2536 8.63238 21.5791 8.83398 21.7944 8.99185L21.842 9.0273L21.9785 9.13129C22.2878 9.3704 22.5773 9.63024 22.9115 9.83704C23.2763 10.0629 23.6724 10.2425 24.0747 10.3897C24.8548 10.6753 25.6941 10.8034 26.5212 10.8439C29.9052 11.0095 33.844 9.22697 36.9153 11.3555C37.6434 11.8601 38.1458 12.5978 38.4051 13.4416C38.6975 14.393 38.5973 15.3784 38.8366 16.3332C38.9404 16.7476 39.6557 16.8051 39.7356 16.3497L39.7408 16.3144L39.8035 16.275L39.8282 16.2603C39.8536 16.2456 39.8652 16.2414 39.8432 16.262L39.8383 16.2664L39.8481 16.258C39.8555 16.2513 39.863 16.2444 39.8704 16.2374L39.8922 16.216C40.0447 15.8558 40.3638 15.7226 40.6735 15.7577L40.6648 15.7791L40.5726 16.0173L40.5432 16.0921C40.4348 16.3649 40.3154 16.6232 40.1091 16.8571C39.8172 17.1879 39.4542 17.4576 39.0452 17.6236C38.9611 17.6577 38.9737 17.772 39.0665 17.7812C39.9802 17.8724 41.0093 17.3159 41.439 16.4725C41.4432 16.5023 41.4458 16.5328 41.4466 16.564C41.4496 16.6667 41.4438 16.7677 41.4298 16.8664C41.3789 16.8853 41.3297 16.9134 41.2839 16.9515C40.9873 17.1987 40.8415 17.6027 40.5625 17.8785C40.2701 18.1675 39.9113 18.4355 39.5216 18.5697C39.5155 18.5718 39.5104 18.5749 39.5059 18.5783C39.4765 18.4666 39.4454 18.3554 39.4099 18.246C39.396 18.203 39.3388 18.2137 39.3345 18.2563C39.3267 18.3322 38.2548 17.5678 37.4294 17.6913C35.8775 17.9234 35.5192 18.8317 33.2894 18.6976C32.2012 18.6322 29.903 17.6102 27.8925 17.5334C26.0687 17.4637 22.8091 18.5072 21.9491 19.1086C21.502 19.4212 22.7645 20.4534 22.5358 20.9227C21.8872 22.254 22.15 24.0151 21.4717 25.0678L21.4455 25.1075C21.0112 25.7473 21.2823 27.4498 21.1132 27.9746C20.8077 28.9222 20.302 28.5072 20.3783 28.6342C20.4025 28.6743 20.4671 28.6483 20.4544 28.602C20.2459 27.8419 19.6753 27.2679 18.9498 27.0585C18.9812 26.8783 18.9241 26.6521 18.8123 26.5043L18.7666 26.2904L18.7244 26.0902C18.6272 25.6232 18.5402 25.1566 18.4934 24.6768C18.4232 23.9573 18.4208 23.2324 18.4669 22.5112C18.5273 21.5634 18.7221 20.6503 18.9362 19.7378L18.9592 19.64L19.1276 18.9305C19.5484 19.0505 19.9801 19.1263 20.3998 19.1639C20.8884 19.2076 21.3721 19.2036 21.8521 19.1649C22.2775 20.3233 22.2613 21.6425 21.7356 22.7739C21.1206 24.0974 19.6131 25.3616 20.0269 26.9665C20.2074 27.6662 21.263 27.5234 21.288 26.8169L21.2884 26.7953C21.2924 26.0973 21.5291 25.5224 21.8418 24.9225L21.8849 24.8405L21.9563 24.7068C22.3307 24.005 22.6476 23.3124 22.753 22.514C22.906 21.3542 22.6662 20.1566 22.0933 19.1426C24.1342 18.9292 26.1095 18.1192 28.1023 17.684L28.1937 17.6644L28.2855 17.6455C29.7577 17.3479 31.3802 17.3127 32.7148 18.0897C32.7403 18.1045 32.7605 18.0675 32.7375 18.0509C30.8003 16.6503 28.2915 16.8491 26.0702 17.3427L25.9423 17.3714L25.8166 17.4003C23.762 17.876 21.6095 18.5747 19.5094 17.9592C18.9635 17.7992 18.4337 17.5364 18.0063 17.1559L17.9706 17.1238C17.7899 16.9603 17.5836 16.7487 17.5488 16.5004C17.5366 16.413 17.5404 16.3532 17.5918 16.284C17.6454 16.212 17.739 16.2123 17.6851 16.1863C18.3142 16.4902 18.8535 15.6168 18.2626 15.2384L18.2209 15.2126C17.4649 14.7325 17.8426 13.6398 18.7098 13.6449L18.7542 13.6457C19.2453 13.6472 19.3958 13.0656 19.1317 12.7252L19.1063 12.6934C18.6175 12.0623 19.4403 11.301 20.0805 11.6578L20.1155 11.678C20.4194 11.8465 20.7389 11.6589 20.8539 11.3614C21.1005 10.723 20.9743 10.0639 20.9597 9.4032L20.9589 9.3601L20.9579 9.28823L20.9577 9.23147L20.9583 9.19385C20.9614 9.0546 20.9794 8.90354 21.0549 8.82885ZM39.5289 18.6693L39.535 18.6706L39.5482 18.6712L39.5602 18.7998L39.5448 18.7345L39.5289 18.6693ZM18.5426 18.7546L18.5278 18.7244L18.5756 18.7437L18.5526 18.7761L18.5426 18.7546ZM31.9431 15.081C31.8922 15.0665 31.8555 15.1459 31.906 15.169C33.1627 15.7453 34.1158 16.6649 34.8598 17.8173C34.9303 17.9264 35.0367 17.9584 35.1591 17.9393C35.2192 17.93 35.2529 17.9007 35.285 17.8607L35.293 17.8504L35.3174 17.8173C35.3705 17.7443 35.3635 17.6228 35.3174 17.5491C34.5623 16.3401 33.2985 15.4691 31.9431 15.081ZM34.9343 14.7036C34.879 14.7038 34.8496 14.7886 34.8918 14.8246C35.2527 15.1325 35.6051 15.4738 35.8613 15.8766C35.9858 16.0721 36.0897 16.2806 36.165 16.5002C36.2471 16.7398 36.2737 16.9881 36.3908 17.2146C36.5871 17.5943 37.1133 17.3822 37.1397 17.0112C37.1797 16.4516 36.7135 15.8224 36.344 15.441C35.9691 15.0541 35.5093 14.7872 34.9788 14.7092L34.9416 14.7041L34.9343 14.7036ZM21.0827 14.2655C20.9286 14.2264 20.8026 14.4235 20.9238 14.5391C21.589 15.1745 22.4881 15.4691 23.3833 15.5978L23.4288 15.6042C24.267 15.7194 25.486 15.7848 26.118 15.1013C26.2518 14.9566 26.2099 14.6792 25.9951 14.6345C25.7009 14.5732 25.399 14.5958 25.1006 14.6327L25.0155 14.6435L24.8039 14.6717C24.3859 14.7264 23.9664 14.7598 23.5445 14.7474C22.6998 14.7225 21.8951 14.4717 21.0827 14.2655ZM35.7218 12.2439C35.6332 12.2096 35.5396 12.3317 35.5952 12.409C35.8501 12.7633 36.1556 13.0732 36.4166 13.4222C36.6785 13.7722 36.8973 14.14 37.2071 14.4515C37.3734 14.6186 37.6566 14.4486 37.5978 14.2235C37.3754 13.3713 36.5292 12.5568 35.7218 12.2439ZM22.4596 12.6286C22.3665 12.5956 22.3013 12.7247 22.3661 12.7896C23.2239 13.6481 24.7671 14.0978 25.9033 13.6019C26.159 13.4903 26.0024 13.1315 25.7724 13.1174C25.2038 13.0822 24.6328 13.1481 24.0672 13.0614C23.5149 12.9767 22.9852 12.8152 22.4596 12.6286ZM23.9014 11.4777C23.7785 11.4264 23.7272 11.6102 23.8175 11.6772C24.3028 12.0369 24.8985 12.1929 25.4924 12.0634C25.6858 12.0212 25.644 11.7085 25.4456 11.7165C24.9083 11.738 24.402 11.6867 23.9014 11.4777ZM27.8831 9.61063C28.6185 9.57826 29.3636 9.5697 30.1095 9.59519L29.7785 9.63925L29.5578 9.66812C28.7117 9.77752 27.8642 9.87008 27.0099 9.86633C26.4325 9.8638 25.8559 9.81714 25.2921 9.70304C26.1557 9.75525 27.0548 9.6599 27.8831 9.61063Z" fill="#ECDCBF"/>
<path fill-rule="evenodd" clip-rule="evenodd" d="M19.1494 14.7685C19.1485 14.7727 19.1499 14.776 19.1509 14.7805C19.1511 14.7792 19.1513 14.7785 19.1516 14.7769C19.1508 14.7735 19.1502 14.7712 19.1494 14.7685Z" fill="#4F66AF"/>
<path fill-rule="evenodd" clip-rule="evenodd" d="M19.1489 14.8121C19.1452 14.8082 19.1398 14.8052 19.1345 14.8013C19.1344 14.8014 19.1343 14.8015 19.1342 14.8017C19.1392 14.805 19.144 14.8087 19.1489 14.8121Z" fill="#4F66AF"/>
<path fill-rule="evenodd" clip-rule="evenodd" d="M41.2838 16.9592C41.6197 16.6794 42.149 16.937 42.0352 17.3977C41.9113 17.8995 41.3749 18.2423 40.9321 18.4485C40.4763 18.6606 40.0323 18.7014 39.535 18.6783L39.5289 18.6769C39.6669 19.2319 39.7452 19.8087 39.8508 20.367C39.9849 21.0753 40.1167 21.7839 40.2466 22.4929C40.3722 23.1782 40.5311 23.8644 40.6276 24.5531C40.7249 25.2483 40.8184 25.944 40.914 26.6394C41.0736 27.8008 41.2025 28.9676 41.3383 30.1324L41.4031 30.6838C41.5391 31.8508 41.6486 33.0192 41.3908 34.1805C41.1492 35.2689 40.6048 36.2841 39.9735 37.1926C39.3551 38.0823 38.6644 38.9377 37.9062 39.7115C36.4436 41.2039 34.6401 42.3992 32.5253 42.6209C31.6148 42.7164 30.6422 42.6101 29.7862 42.2783L29.7293 42.2561C28.8628 41.9131 27.8016 41.3258 27.576 40.3621C27.4376 39.7709 28.0452 39.3094 28.578 39.5899C28.8249 39.7199 29.0105 39.8684 29.2131 40.0546L29.2491 40.0879C29.4147 40.2421 29.4784 40.2895 29.6695 40.4101C30.0614 40.6572 30.3552 40.7742 30.8003 40.8865C31.621 41.0935 32.5068 41.0608 33.34 40.816C35.1089 40.2963 36.4813 38.9403 37.6569 37.5806C38.2952 36.8423 38.9011 36.0678 39.3684 35.2072C39.8587 34.3044 40.085 33.3564 40.0714 32.3291C40.0561 31.17 39.8963 30.0064 39.7914 28.8527C39.6846 27.6766 39.5858 26.5009 39.4987 25.3231C39.4172 24.2186 39.4093 23.1092 39.3808 22.0013L39.3752 21.7935C39.3585 21.2054 39.3469 20.617 39.3336 20.0287C39.3204 19.4421 39.2741 18.8481 39.3343 18.264C39.3386 18.2214 39.3958 18.2107 39.4097 18.2537C39.4453 18.3631 39.4763 18.4743 39.5057 18.586C39.5102 18.5826 39.5153 18.5795 39.5214 18.5774C39.9111 18.4432 40.27 18.1752 40.5623 17.8862C40.8413 17.6104 40.9871 17.2064 41.2838 16.9592ZM19.9644 8.74103C20.2092 7.73319 21.3107 7.50807 22.1252 7.99343C22.517 8.22684 22.8307 8.56345 23.1967 8.83095C23.5605 9.09696 23.9626 9.31056 24.3869 9.46144C25.2298 9.76114 26.119 9.8701 27.0099 9.874C29.1783 9.88352 31.3023 9.27262 33.4738 9.34077C35.1541 9.3935 36.9375 9.89133 38.1563 11.109C38.8129 11.765 39.236 12.6083 39.4629 13.5036C39.569 13.9221 39.648 14.3507 39.7104 14.7783L39.7257 14.8852C39.7606 15.1351 39.8166 15.3996 39.8218 15.6522C39.8265 15.879 39.7692 16.1164 39.7382 16.3409C39.6728 16.8141 38.9417 16.7602 38.8366 16.3409C38.5974 15.3861 38.6975 14.4008 38.4051 13.4493C38.1459 12.6055 37.6434 11.8678 36.9154 11.3632C33.844 9.23468 29.9053 11.0172 26.5212 10.8516C25.6941 10.8111 24.8549 10.683 24.0747 10.3974C23.6724 10.2502 23.2763 10.0706 22.9116 9.84476C22.5774 9.63795 22.2879 9.37811 21.9785 9.139L21.842 9.03502C21.63 8.87506 21.2689 8.62498 21.055 8.83657C20.9619 8.92867 20.9562 9.13692 20.9579 9.29595L20.959 9.36782C20.9687 10.043 21.1059 10.7169 20.8539 11.3691C20.7389 11.6666 20.4194 11.8542 20.1156 11.6857L20.0999 11.6767C19.4571 11.2934 18.6126 12.0637 19.1063 12.7012L19.1217 12.7204C19.3995 13.0589 19.2514 13.655 18.7542 13.6535L18.7363 13.6532C17.8504 13.6254 17.4573 14.7354 18.2209 15.2203L18.2444 15.2348C18.8644 15.6068 18.3206 16.501 17.6852 16.194C17.739 16.22 17.6454 16.2197 17.5919 16.2917C17.5404 16.3609 17.5366 16.4208 17.5488 16.5081C17.5859 16.7729 17.8182 16.996 18.0063 17.1636C18.4337 17.5441 18.9635 17.8069 19.5094 17.9669C21.6962 18.6078 23.9396 17.8238 26.0703 17.3504C28.2915 16.8568 30.8003 16.658 32.7375 18.0586C32.7605 18.0752 32.7404 18.1122 32.7149 18.0974C31.3247 17.2881 29.622 17.3599 28.1023 17.6917C26.1095 18.1269 24.1342 18.9369 22.0933 19.1503C22.6663 20.1643 22.906 21.3619 22.753 22.5217C22.6476 23.3201 22.3307 24.0127 21.9563 24.7145L21.8849 24.8482C21.5511 25.4782 21.2926 26.0733 21.2885 26.803C21.2844 27.5281 20.2092 27.681 20.027 26.9742C19.6132 25.3693 21.1206 24.1051 21.7357 22.7816C22.2613 21.6502 22.2775 20.3311 21.8521 19.1726C21.3722 19.2113 20.8884 19.2153 20.3998 19.1717C19.9802 19.1341 19.5484 19.0582 19.1276 18.9383L18.9592 19.6478C18.7362 20.5928 18.5295 21.5373 18.4669 22.5189C18.4208 23.2402 18.4233 23.965 18.4934 24.6845C18.5541 25.306 18.6821 25.9053 18.8124 26.512C18.9242 26.6598 18.9813 26.886 18.9498 27.0662C19.6753 27.2757 20.246 27.8496 20.4545 28.6097C20.4672 28.656 20.4026 28.682 20.3784 28.6419C19.8837 27.8191 18.6099 27.5163 17.8041 28.0599C17.0346 28.5789 16.7311 29.6267 17.1667 30.4562C17.3958 30.8924 17.7355 31.1989 18.1735 31.4099L18.2616 31.4514C18.4911 31.5603 18.7018 31.679 18.8494 31.8977C19.0409 32.1813 19.0474 32.4812 19.0293 32.8054L19.0214 32.9367C19.0093 33.154 19.0066 33.3777 19.0712 33.5867L19.0858 33.6331C19.1029 33.6853 19.1208 33.7312 19.1518 33.781C19.1611 33.7958 19.2483 33.8816 19.2767 33.9126L19.3125 33.9234L19.3526 33.9251C19.397 33.9258 19.4553 33.9065 19.4362 33.9198L19.4414 33.9168C19.4582 33.9063 19.4737 33.8952 19.4868 33.8853L19.5116 33.8659C19.5696 33.7819 19.6423 33.7124 19.7314 33.6595L19.8166 33.6215C20.0379 33.3872 20.417 33.5103 20.5757 33.7437C20.6898 33.9114 20.7512 34.082 20.7563 34.2503C20.7741 34.2216 20.8137 34.2059 20.839 34.2381L20.9894 34.4302C21.5648 35.1673 22.1303 35.909 22.7842 36.5809C23.1445 36.9511 23.5319 37.2991 23.937 37.6195C24.2828 37.8931 24.9388 38.1564 24.9488 38.6547C24.9519 38.8165 24.8374 38.9311 24.6972 38.986C24.241 39.1647 23.6772 38.5569 23.3476 38.2612L23.3207 38.2373C22.9174 37.8832 22.5493 37.4944 22.2096 37.0787C21.5499 36.2712 20.9983 35.3418 20.7551 34.3193C20.7437 34.4978 20.6673 34.6726 20.5187 34.8376C20.3208 35.0572 20.0499 35.2111 19.7606 35.2745C19.1051 35.4181 18.4651 35.1817 18.0751 34.6341C17.7455 34.1712 17.6484 33.56 17.691 33.0007L17.6962 32.9336C17.7022 32.8439 17.7098 32.6793 17.7329 32.6093L17.5266 32.4957C17.2735 32.3607 17.039 32.1837 16.8285 31.9892C15.9826 31.2074 15.5581 29.9368 15.9449 28.8249C16.1868 28.1293 16.6951 27.5241 17.346 27.2096C17.2372 26.9575 17.2008 26.6582 17.1598 26.3933L17.1529 26.3495C17.0833 25.915 17.025 25.4751 17.0028 25.0354C16.9612 24.2142 17.0117 23.3854 17.1404 22.5738C17.3495 21.2555 17.7823 19.8574 18.5755 18.7515C17.9703 18.5106 17.4133 18.1618 16.9833 17.6774C16.534 17.1713 16.2476 16.4467 16.595 15.804C16.6835 15.6402 16.7989 15.5024 16.9315 15.3931C16.7016 14.9578 16.6272 14.4433 16.7691 13.9515C16.9386 13.3637 17.399 12.9051 17.9552 12.6911C17.8201 12.1341 17.9305 11.5349 18.3432 11.0707C18.7525 10.6102 19.3882 10.4425 19.9765 10.5478C20.0084 9.95536 19.8224 9.32529 19.9644 8.74103ZM18.3144 29.5403C18.8538 29.2757 19.4931 29.3178 20.0319 29.5686L20.0684 29.5859C20.6567 29.8719 21.4358 30.5401 21.2488 31.2507C21.1394 31.6662 20.6788 31.8081 20.3216 31.6288C20.0233 31.4789 19.9553 31.2109 19.8056 30.9416C19.6998 30.7513 19.5689 30.6024 19.4153 30.4494C19.0914 30.1269 18.7276 29.8873 18.3144 29.6956C18.2548 29.6679 18.2569 29.5686 18.3144 29.5403ZM31.9058 15.1767C31.8553 15.1536 31.8919 15.0742 31.9428 15.0887C33.2983 15.4768 34.562 16.3478 35.3172 17.5568C35.3632 17.6305 35.3703 17.752 35.3172 17.825L35.2928 17.8581C35.2581 17.9034 35.224 17.9369 35.1588 17.947C35.0364 17.966 34.9301 17.9341 34.8596 17.825C34.1156 16.6726 33.1625 15.753 31.9058 15.1767ZM40.9797 15.405C41.0945 15.21 41.399 15.2493 41.4596 15.4679L41.4684 15.4869C41.5011 15.5614 41.4862 15.5767 41.4252 15.5345C41.5763 15.6593 41.6446 15.8452 41.5985 16.045C41.349 17.1244 40.1295 17.8951 39.0664 17.789C38.9736 17.7798 38.961 17.6655 39.045 17.6314C39.4541 17.4654 39.8171 17.1957 40.109 16.8649C40.3927 16.5433 40.512 16.1753 40.6647 15.7869C40.7219 15.6411 40.811 15.5361 40.9365 15.4788C40.9531 15.4558 40.9676 15.4312 40.9797 15.405ZM34.934 14.7113L34.9414 14.7117C35.4876 14.7825 35.9602 15.0527 36.3438 15.4487C36.7132 15.8301 37.1795 16.4593 37.1395 17.0189C37.1131 17.3899 36.5869 17.602 36.3906 17.2223C36.2734 16.9958 36.2468 16.7474 36.1648 16.5079C36.0895 16.2883 35.9855 16.0798 35.8611 15.8843C35.6048 15.4815 35.2524 15.1402 34.8916 14.8323C34.8494 14.7962 34.8788 14.7115 34.934 14.7113ZM20.9235 14.5469C20.8024 14.4313 20.9284 14.2342 21.0824 14.2733C21.8949 14.4795 22.6995 14.7303 23.5442 14.7552C23.9661 14.7676 24.3857 14.7342 24.8036 14.6795L25.0152 14.6514C25.3412 14.6087 25.6727 14.5752 25.9948 14.6423C26.2096 14.6871 26.2516 14.9644 26.1177 15.1091C25.4857 15.7926 24.2667 15.7272 23.4286 15.612C22.5184 15.4868 21.6 15.193 20.9235 14.5469ZM35.5954 12.4167C35.5398 12.3393 35.6334 12.2173 35.7219 12.2516C36.5294 12.5645 37.3756 13.379 37.598 14.2311C37.6568 14.4563 37.3736 14.6262 37.2073 14.4591C36.8974 14.1477 36.6787 13.7799 36.4168 13.4299C36.1557 13.0809 35.8503 12.771 35.5954 12.4167ZM22.3659 12.7972C22.3011 12.7324 22.3663 12.6032 22.4593 12.6362C22.985 12.8228 23.5147 12.9843 24.0669 13.069C24.6326 13.1558 25.2035 13.0899 25.7721 13.125C26.0022 13.1392 26.1588 13.4979 25.9031 13.6095C24.7669 14.1055 23.2236 13.6558 22.3659 12.7972ZM23.8177 11.6849C23.7274 11.6179 23.7788 11.4341 23.9017 11.4854C24.4023 11.6944 24.9086 11.7457 25.4458 11.7242C25.6442 11.7162 25.686 12.0289 25.4926 12.071C24.8987 12.2005 24.303 12.0446 23.8177 11.6849Z" fill="black"/>
<path fill-rule="evenodd" clip-rule="evenodd" d="M32.964 35.9589C32.5038 35.7711 32.0932 35.4578 31.793 35.0576C31.6886 34.9185 31.6615 34.7716 31.6834 34.6372C31.708 34.4861 31.7974 34.3492 31.9193 34.2573C32.0415 34.1652 32.1944 34.1197 32.3422 34.1429C32.4707 34.163 32.5985 34.2334 32.6997 34.3793L32.7209 34.4085C32.8994 34.65 33.1319 34.8482 33.3969 34.976C33.6523 35.0991 33.938 35.1566 34.2336 35.1231C34.7966 35.0595 35.1846 34.7549 35.5971 34.3413C35.6482 34.2891 35.6994 34.2352 35.7508 34.1805C35.7832 34.1309 35.8283 34.099 35.8783 34.0822C35.9339 34.0637 35.9967 34.0647 36.0542 34.0848C36.1097 34.1042 36.1593 34.1409 36.1926 34.1898C36.2242 34.2362 36.2422 34.2936 36.2363 34.3596C36.1986 34.7883 35.9746 35.1708 35.6563 35.4712C35.3029 35.8049 34.8344 36.0357 34.3934 36.1166C33.9075 36.2058 33.4123 36.1419 32.964 35.9589ZM34.6226 29.3459C35.1396 29.6603 35.9273 30.3933 35.3711 31.1726C34.7165 31.8598 33.774 31.0719 33.3095 30.7156C32.8789 30.4394 32.395 31.1496 32.7946 31.4721C36.1507 33.9578 37.5127 29.4281 34.8841 28.9763C34.5946 28.9265 34.4872 29.2487 34.6226 29.3459ZM28.6084 26.4544C28.6655 25.7451 29.7453 25.584 29.8527 26.2859C29.9489 26.9146 29.8357 27.4921 29.5526 28.0582C29.2821 28.5989 28.6023 28.3466 28.5508 27.8542C28.4819 27.1942 28.5729 26.8956 28.6084 26.4544ZM36.8279 26.1403C36.9785 25.9431 37.1958 25.8084 37.4563 25.8845C38.2699 26.1224 38.0301 27.2779 37.7443 27.8404C37.5891 28.1459 37.0872 28.2233 36.8604 27.9544C36.4907 27.5158 36.3137 26.6399 36.7836 26.2079C36.7964 26.1856 36.8105 26.163 36.8279 26.1403ZM29.5411 23.3509L29.6697 23.3284C30.0673 23.2596 30.5616 23.1935 30.8429 23.5133C30.9921 23.6828 31.0434 23.998 30.8429 24.1603C30.4902 24.4459 30.1002 24.3352 29.6776 24.3594C29.3293 24.3794 28.9945 24.4371 28.659 24.533C27.9229 24.7435 27.3231 25.1277 26.6944 25.5496C26.612 25.6049 26.5277 25.4994 26.5671 25.4222C26.93 24.7111 27.6333 24.127 28.3378 23.7709C28.7137 23.5808 29.1252 23.4232 29.5411 23.3509ZM36.0862 23.0323L36.1845 23.0524C37.2551 23.2763 38.6459 23.7235 39.1529 24.7754C39.1722 24.9241 39.1518 24.956 39.1352 24.9768L39.1296 24.9837C39.116 25.0015 39.1051 25.026 39.0406 25.0463C39.0227 25.042 39.0047 25.0375 38.9864 25.0327C38.754 24.9718 38.5702 24.8879 38.3922 24.8008L38.1992 24.7057C37.9753 24.5959 37.7494 24.49 37.51 24.4119C36.9992 24.2452 36.4737 24.1278 35.9401 24.0651C35.8245 24.0515 35.7131 24.0125 35.6253 23.9455C35.5419 23.882 35.4781 23.7941 35.4491 23.6772C35.4115 23.5259 35.4223 23.4113 35.5034 23.2748C35.5644 23.1723 35.6517 23.1013 35.752 23.0605C35.8542 23.0189 35.9705 23.0091 36.0862 23.0323Z" fill="black"/>
<path fill-rule="evenodd" clip-rule="evenodd" d="M38.2223 19.1427C38.618 19.007 38.9336 19.4187 38.8576 19.7775C38.7679 20.2001 38.327 20.5392 38.0347 20.8371C37.728 21.1507 37.4151 21.4582 37.0906 21.7541C36.4711 22.3199 35.8289 22.8526 35.1518 23.3492L34.9448 23.5009C34.3242 23.9552 33.7054 24.3989 33.0406 24.7922C32.6805 25.0045 32.3169 25.2099 31.9486 25.4079C31.8172 25.4784 31.657 25.5872 31.4921 25.6681C32.0951 26.1338 32.5593 26.8447 32.6599 27.507C32.9091 29.152 31.8494 30.6765 30.3541 31.2826C29.6087 31.5846 28.7789 31.6723 27.9821 31.5812C27.1715 31.4887 26.35 31.249 25.8235 30.5847C25.356 29.9951 25.1875 29.2425 25.154 28.5034C25.1383 28.1528 25.1417 27.8076 25.2156 27.4974C24.8932 27.5001 24.5707 27.4987 24.251 27.5022C23.461 27.5097 22.6695 27.5132 21.8789 27.4912C21.0635 27.4679 20.2523 27.4316 19.4397 27.3591C19.083 27.3268 18.7284 27.2741 18.3737 27.2234C18.0294 27.1748 17.6495 27.1563 17.3277 27.0152C17.3058 27.0063 17.3149 26.9748 17.3339 26.9686C17.6768 26.8577 18.0664 26.8775 18.4237 26.8557L18.772 26.8345C19.0621 26.8172 19.352 26.8012 19.643 26.7919C20.3151 26.7698 20.9867 26.7643 21.6586 26.7528L21.9467 26.7474C22.7374 26.7317 23.5281 26.7228 24.3188 26.6975C24.6467 26.6872 24.9753 26.668 25.3046 26.6502C25.3429 26.5632 25.3992 26.4837 25.4532 26.4064C25.6147 26.1749 25.8201 25.9708 26.033 25.7859C26.469 25.405 26.96 25.1223 27.5076 24.9326C28.0504 24.7452 28.8442 24.6523 29.4183 24.6644C29.9925 24.6764 30.8108 24.7575 31.0737 25.227C31.1011 25.2757 31.6015 25.1818 31.7501 25.0681C32.0972 24.8031 32.4381 24.5305 32.7728 24.2511C33.3945 23.7313 34.0338 23.2197 34.6227 22.6636C35.2299 22.0897 35.8323 21.5062 36.4101 20.9035C36.7004 20.6015 36.99 20.2988 37.2714 19.9892C37.5589 19.6735 37.806 19.2845 38.2223 19.1427Z" fill="black"/>
</g>
</svg>
